solid OpenSCAD_Model
  facet normal -1 0 0
    outer loop
      vertex -63.48 -11.5 0
      vertex -63.48 -11.5 0.6
      vertex -63.48 51.5 0
    endloop
  endfacet
  facet normal -1 0 0
    outer loop
      vertex -63.48 51.5 0
      vertex -63.48 -11.5 0.6
      vertex -63.48 51.5 0.6
    endloop
  endfacet
  facet normal -0.999229 -0.0392593 0
    outer loop
      vertex -63.48 -11.5 0
      vertex -63.4553 -12.1277 0
      vertex -63.48 -11.5 0.6
    endloop
  endfacet
  facet normal -0.999229 -0.0392593 0
    outer loop
      vertex -63.48 -11.5 0.6
      vertex -63.4553 -12.1277 0
      vertex -63.4553 -12.1277 0.6
    endloop
  endfacet
  facet normal 0 0 -1
    outer loop
      vertex -63.48 -11.5 0
      vertex -63.48 51.5 0
      vertex -63.4553 -12.1277 0
    endloop
  endfacet
  facet normal 0 0 -1
    outer loop
      vertex -63.4553 -12.1277 0
      vertex -63.48 51.5 0
      vertex -63.4553 52.1277 0
    endloop
  endfacet
  facet normal 0 0 -1
    outer loop
      vertex -63.4553 -12.1277 0
      vertex -63.4553 52.1277 0
      vertex -63.3815 52.7515 0
    endloop
  endfacet
  facet normal 0 0 -1
    outer loop
      vertex -63.4553 -12.1277 0
      vertex -63.3815 52.7515 0
      vertex -63.259 53.3676 0
    endloop
  endfacet
  facet normal 0 0 -1
    outer loop
      vertex -63.4553 -12.1277 0
      vertex -63.259 53.3676 0
      vertex -63.0885 53.9721 0
    endloop
  endfacet
  facet normal 0 0 -1
    outer loop
      vertex -63.4553 -12.1277 0
      vertex -63.0885 53.9721 0
      vertex -62.871 54.5615 0
    endloop
  endfacet
  facet normal 0 0 -1
    outer loop
      vertex -63.4553 -12.1277 0
      vertex -62.871 54.5615 0
      vertex -62.6081 55.1319 0
    endloop
  endfacet
  facet normal 0 0 -1
    outer loop
      vertex -63.4553 -12.1277 0
      vertex -62.6081 55.1319 0
      vertex -62.3011 55.68 0
    endloop
  endfacet
  facet normal 0 0 -1
    outer loop
      vertex -63.4553 -12.1277 0
      vertex -62.3011 55.68 0
      vertex -61.9521 56.2023 0
    endloop
  endfacet
  facet normal 0 0 -1
    outer loop
      vertex -63.4553 -12.1277 0
      vertex -61.9521 56.2023 0
      vertex -61.5632 56.6956 0
    endloop
  endfacet
  facet normal 0 0 -1
    outer loop
      vertex -63.4553 -12.1277 0
      vertex -61.5632 56.6956 0
      vertex -61.1369 57.1569 0
    endloop
  endfacet
  facet normal 0 0 -1
    outer loop
      vertex -63.4553 -12.1277 0
      vertex -61.1369 57.1569 0
      vertex -60.6756 57.5832 0
    endloop
  endfacet
  facet normal 0 0 -1
    outer loop
      vertex -63.4553 -12.1277 0
      vertex -60.6756 57.5832 0
      vertex -60.1823 57.9721 0
    endloop
  endfacet
  facet normal 0 0 -1
    outer loop
      vertex -60.33 52.5 0
      vertex -60.1823 57.9721 0
      vertex -59.66 58.3211 0
    endloop
  endfacet
  facet normal 0 0 -1
    outer loop
      vertex -59.405 54.1021 0
      vertex -59.66 58.3211 0
      vertex -59.1119 58.6281 0
    endloop
  endfacet
  facet normal 0 0 -1
    outer loop
      vertex -59.405 54.1021 0
      vertex -57.3476 59.279 0
      vertex -57.555 54.1021 0
    endloop
  endfacet
  facet normal 0 0 -1
    outer loop
      vertex -59.405 54.1021 0
      vertex -58.5415 58.891 0
      vertex -57.9521 59.1085 0
    endloop
  endfacet
  facet normal 0 0 -1
    outer loop
      vertex -57.555 54.1021 0
      vertex -56.7315 59.4015 0
      vertex -56.1077 59.4753 0
    endloop
  endfacet
  facet normal 0 0 -1
    outer loop
      vertex -56.63 52.5 0
      vertex -56.1077 59.4753 0
      vertex -55.48 59.5 0
    endloop
  endfacet
  facet normal 0 0 -1
    outer loop
      vertex -63.4553 -12.1277 0
      vertex -55.48 59.5 0
      vertex 55.47 59.5 0
    endloop
  endfacet
  facet normal 0 0 -1
    outer loop
      vertex -63.4553 -12.1277 0
      vertex 55.47 59.5 0
      vertex 56.0977 59.4753 0
    endloop
  endfacet
  facet normal 0 0 -1
    outer loop
      vertex -63.4553 -12.1277 0
      vertex 56.0977 59.4753 0
      vertex 56.7215 59.4015 0
    endloop
  endfacet
  facet normal 0 0 -1
    outer loop
      vertex -63.4553 -12.1277 0
      vertex 56.7215 59.4015 0
      vertex 57.3376 59.279 0
    endloop
  endfacet
  facet normal 0 0 -1
    outer loop
      vertex -63.4553 -12.1277 0
      vertex 57.3376 59.279 0
      vertex 57.9421 59.1085 0
    endloop
  endfacet
  facet normal 0 0 -1
    outer loop
      vertex -63.4553 -12.1277 0
      vertex 57.9421 59.1085 0
      vertex 58.5315 58.891 0
    endloop
  endfacet
  facet normal 0 0 -1
    outer loop
      vertex -63.4553 -12.1277 0
      vertex 58.5315 58.891 0
      vertex 59.1019 58.6281 0
    endloop
  endfacet
  facet normal 0 0 -1
    outer loop
      vertex -63.4553 -12.1277 0
      vertex 59.1019 58.6281 0
      vertex 59.65 58.3211 0
    endloop
  endfacet
  facet normal 0 0 -1
    outer loop
      vertex -63.4553 -12.1277 0
      vertex 59.65 58.3211 0
      vertex 60.1723 57.9721 0
    endloop
  endfacet
  facet normal 0 0 -1
    outer loop
      vertex -63.4553 -12.1277 0
      vertex 60.1723 57.9721 0
      vertex 60.6656 57.5832 0
    endloop
  endfacet
  facet normal 0 0 -1
    outer loop
      vertex -63.4553 -12.1277 0
      vertex 60.6656 57.5832 0
      vertex 61.1269 57.1569 0
    endloop
  endfacet
  facet normal 0 0 -1
    outer loop
      vertex -63.4553 -12.1277 0
      vertex 61.1269 57.1569 0
      vertex 61.5532 56.6956 0
    endloop
  endfacet
  facet normal 0 0 -1
    outer loop
      vertex 57.245 54.1021 0
      vertex 61.5532 56.6956 0
      vertex 61.9421 56.2023 0
    endloop
  endfacet
  facet normal 0 0 -1
    outer loop
      vertex 59.095 54.1021 0
      vertex 61.9421 56.2023 0
      vertex 62.2911 55.68 0
    endloop
  endfacet
  facet normal 0 0 -1
    outer loop
      vertex 60.02 52.5 0
      vertex 62.861 54.5615 0
      vertex 63.0785 53.9721 0
    endloop
  endfacet
  facet normal 0 0 -1
    outer loop
      vertex 59.095 54.1021 0
      vertex 62.5981 55.1319 0
      vertex 62.861 54.5615 0
    endloop
  endfacet
  facet normal 0 0 -1
    outer loop
      vertex 59.095 50.8979 0
      vertex 63.249 53.3676 0
      vertex 63.3715 52.7515 0
    endloop
  endfacet
  facet normal 0 0 -1
    outer loop
      vertex -63.4553 -12.1277 0
      vertex 63.3715 52.7515 0
      vertex 63.4453 52.1277 0
    endloop
  endfacet
  facet normal 0 0 -1
    outer loop
      vertex -63.4553 -12.1277 0
      vertex 63.4453 52.1277 0
      vertex 63.47 51.5 0
    endloop
  endfacet
  facet normal 0 0 -1
    outer loop
      vertex 59.095 -10.8979 0
      vertex 63.47 51.5 0
      vertex 63.47 -11.5 0
    endloop
  endfacet
  facet normal 0 0 -1
    outer loop
      vertex 60.02 -12.5 0
      vertex 63.4453 -12.1277 0
      vertex 63.3715 -12.7515 0
    endloop
  endfacet
  facet normal 0 0 -1
    outer loop
      vertex 59.095 -14.1021 0
      vertex 63.0785 -13.9721 0
      vertex 62.861 -14.5615 0
    endloop
  endfacet
  facet normal 0 0 -1
    outer loop
      vertex -57.555 -10.8979 0
      vertex 59.1019 -18.6281 0
      vertex -56.63 -12.5 0
    endloop
  endfacet
  facet normal 0 0 -1
    outer loop
      vertex -57.555 -10.8979 0
      vertex 59.65 -18.3211 0
      vertex 59.1019 -18.6281 0
    endloop
  endfacet
  facet normal 0 0 -1
    outer loop
      vertex -57.555 -10.8979 0
      vertex 60.1723 -17.9721 0
      vertex 59.65 -18.3211 0
    endloop
  endfacet
  facet normal 0 0 -1
    outer loop
      vertex -57.555 -10.8979 0
      vertex 60.6656 -17.5832 0
      vertex 60.1723 -17.9721 0
    endloop
  endfacet
  facet normal 0 0 -1
    outer loop
      vertex -57.555 -10.8979 0
      vertex 61.1269 -17.1569 0
      vertex 60.6656 -17.5832 0
    endloop
  endfacet
  facet normal 0 0 -1
    outer loop
      vertex -57.555 -10.8979 0
      vertex 61.5532 -16.6956 0
      vertex 61.1269 -17.1569 0
    endloop
  endfacet
  facet normal 0 0 -1
    outer loop
      vertex -57.555 -10.8979 0
      vertex 61.9421 -16.2023 0
      vertex 61.5532 -16.6956 0
    endloop
  endfacet
  facet normal 0 0 -1
    outer loop
      vertex -57.555 -10.8979 0
      vertex 62.2911 -15.68 0
      vertex 61.9421 -16.2023 0
    endloop
  endfacet
  facet normal 0 0 -1
    outer loop
      vertex -57.555 -10.8979 0
      vertex 62.5981 -15.1319 0
      vertex 62.2911 -15.68 0
    endloop
  endfacet
  facet normal 0 0 -1
    outer loop
      vertex -56.63 -12.5 0
      vertex 59.1019 -18.6281 0
      vertex 58.5315 -18.891 0
    endloop
  endfacet
  facet normal 0 0 -1
    outer loop
      vertex 60.02 -12.5 0
      vertex 63.3715 -12.7515 0
      vertex 63.249 -13.3676 0
    endloop
  endfacet
  facet normal 0 0 -1
    outer loop
      vertex 60.02 -12.5 0
      vertex 63.249 -13.3676 0
      vertex 63.0785 -13.9721 0
    endloop
  endfacet
  facet normal 0 0 -1
    outer loop
      vertex 60.02 -12.5 0
      vertex 63.0785 -13.9721 0
      vertex 59.095 -14.1021 0
    endloop
  endfacet
  facet normal 0 0 -1
    outer loop
      vertex -57.555 -14.1021 0
      vertex 55.47 -19.5 0
      vertex -55.48 -19.5 0
    endloop
  endfacet
  facet normal 0 0 -1
    outer loop
      vertex -63.4553 -12.1277 0
      vertex -55.48 -19.5 0
      vertex -56.1077 -19.4753 0
    endloop
  endfacet
  facet normal 0 0 -1
    outer loop
      vertex -63.4553 -12.1277 0
      vertex -56.1077 -19.4753 0
      vertex -56.7315 -19.4015 0
    endloop
  endfacet
  facet normal 0 0 -1
    outer loop
      vertex -63.4553 -12.1277 0
      vertex -56.7315 -19.4015 0
      vertex -57.3476 -19.279 0
    endloop
  endfacet
  facet normal 0 0 -1
    outer loop
      vertex -63.4553 -12.1277 0
      vertex -57.3476 -19.279 0
      vertex -57.9521 -19.1085 0
    endloop
  endfacet
  facet normal 0 0 -1
    outer loop
      vertex -63.4553 -12.1277 0
      vertex -57.9521 -19.1085 0
      vertex -58.5415 -18.891 0
    endloop
  endfacet
  facet normal 0 0 -1
    outer loop
      vertex -63.4553 -12.1277 0
      vertex -58.5415 -18.891 0
      vertex -59.1119 -18.6281 0
    endloop
  endfacet
  facet normal 0 0 -1
    outer loop
      vertex -63.4553 -12.1277 0
      vertex -59.1119 -18.6281 0
      vertex -59.66 -18.3211 0
    endloop
  endfacet
  facet normal 0 0 -1
    outer loop
      vertex -63.4553 -12.1277 0
      vertex -59.66 -18.3211 0
      vertex -60.1823 -17.9721 0
    endloop
  endfacet
  facet normal 0 0 -1
    outer loop
      vertex -63.4553 -12.1277 0
      vertex -60.1823 -17.9721 0
      vertex -60.6756 -17.5832 0
    endloop
  endfacet
  facet normal 0 0 -1
    outer loop
      vertex -63.4553 -12.1277 0
      vertex -60.6756 -17.5832 0
      vertex -61.1369 -17.1569 0
    endloop
  endfacet
  facet normal 0 0 -1
    outer loop
      vertex -63.4553 -12.1277 0
      vertex -61.1369 -17.1569 0
      vertex -61.5632 -16.6956 0
    endloop
  endfacet
  facet normal 0 0 -1
    outer loop
      vertex -63.4553 -12.1277 0
      vertex -61.5632 -16.6956 0
      vertex -61.9521 -16.2023 0
    endloop
  endfacet
  facet normal 0 0 -1
    outer loop
      vertex -63.4553 -12.1277 0
      vertex -61.9521 -16.2023 0
      vertex -62.3011 -15.68 0
    endloop
  endfacet
  facet normal 0 0 -1
    outer loop
      vertex -63.4553 -12.1277 0
      vertex -62.3011 -15.68 0
      vertex -62.6081 -15.1319 0
    endloop
  endfacet
  facet normal 0 0 -1
    outer loop
      vertex -63.4553 -12.1277 0
      vertex -62.6081 -15.1319 0
      vertex -62.871 -14.5615 0
    endloop
  endfacet
  facet normal 0 0 -1
    outer loop
      vertex -63.4553 -12.1277 0
      vertex -62.871 -14.5615 0
      vertex -63.0885 -13.9721 0
    endloop
  endfacet
  facet normal 0 0 -1
    outer loop
      vertex -63.4553 -12.1277 0
      vertex -63.0885 -13.9721 0
      vertex -63.259 -13.3676 0
    endloop
  endfacet
  facet normal 0 0 -1
    outer loop
      vertex -63.4553 -12.1277 0
      vertex -63.259 -13.3676 0
      vertex -63.3815 -12.7515 0
    endloop
  endfacet
  facet normal 0 0 -1
    outer loop
      vertex -57.555 -14.1021 0
      vertex -55.48 -19.5 0
      vertex -59.405 -14.1021 0
    endloop
  endfacet
  facet normal 0 0 -1
    outer loop
      vertex -63.4553 -12.1277 0
      vertex -60.33 -12.5 0
      vertex -59.405 -14.1021 0
    endloop
  endfacet
  facet normal 0 0 -1
    outer loop
      vertex -63.4553 -12.1277 0
      vertex -59.405 -14.1021 0
      vertex -55.48 -19.5 0
    endloop
  endfacet
  facet normal 0 0 -1
    outer loop
      vertex 57.245 -14.1021 0
      vertex -57.555 -10.8979 0
      vertex 56.32 -12.5 0
    endloop
  endfacet
  facet normal 0 0 -1
    outer loop
      vertex -56.63 -12.5 0
      vertex 55.47 -19.5 0
      vertex -57.555 -14.1021 0
    endloop
  endfacet
  facet normal 0 0 -1
    outer loop
      vertex -57.555 -10.8979 0
      vertex 62.861 -14.5615 0
      vertex 62.5981 -15.1319 0
    endloop
  endfacet
  facet normal 0 0 -1
    outer loop
      vertex -57.555 -10.8979 0
      vertex 57.245 -14.1021 0
      vertex 62.861 -14.5615 0
    endloop
  endfacet
  facet normal 0 0 -1
    outer loop
      vertex -59.405 -10.8979 0
      vertex 63.47 51.5 0
      vertex -57.555 -10.8979 0
    endloop
  endfacet
  facet normal 0 0 -1
    outer loop
      vertex -63.4553 -12.1277 0
      vertex 63.47 51.5 0
      vertex -59.405 -10.8979 0
    endloop
  endfacet
  facet normal 0 0 -1
    outer loop
      vertex -63.4553 -12.1277 0
      vertex -60.1823 57.9721 0
      vertex -60.33 52.5 0
    endloop
  endfacet
  facet normal 0 0 -1
    outer loop
      vertex -59.405 50.8979 0
      vertex -63.4553 -12.1277 0
      vertex -60.33 52.5 0
    endloop
  endfacet
  facet normal 0 0 -1
    outer loop
      vertex -57.555 50.8979 0
      vertex -63.4553 -12.1277 0
      vertex -59.405 50.8979 0
    endloop
  endfacet
  facet normal 0 0 -1
    outer loop
      vertex -59.405 54.1021 0
      vertex -59.1119 58.6281 0
      vertex -58.5415 58.891 0
    endloop
  endfacet
  facet normal 0 0 -1
    outer loop
      vertex -57.555 54.1021 0
      vertex -56.1077 59.4753 0
      vertex -56.63 52.5 0
    endloop
  endfacet
  facet normal 0 0 -1
    outer loop
      vertex -57.555 54.1021 0
      vertex -57.3476 59.279 0
      vertex -56.7315 59.4015 0
    endloop
  endfacet
  facet normal 0 0 -1
    outer loop
      vertex -63.4553 -12.1277 0
      vertex -56.63 52.5 0
      vertex -55.48 59.5 0
    endloop
  endfacet
  facet normal 0 0 -1
    outer loop
      vertex -59.405 54.1021 0
      vertex -57.9521 59.1085 0
      vertex -57.3476 59.279 0
    endloop
  endfacet
  facet normal 0 0 -1
    outer loop
      vertex -56.63 52.5 0
      vertex -63.4553 -12.1277 0
      vertex -57.555 50.8979 0
    endloop
  endfacet
  facet normal 0 0 -1
    outer loop
      vertex 56.32 -12.5 0
      vertex -57.555 -10.8979 0
      vertex 57.245 -10.8979 0
    endloop
  endfacet
  facet normal 0 0 -1
    outer loop
      vertex 59.095 54.1021 0
      vertex 62.2911 55.68 0
      vertex 62.5981 55.1319 0
    endloop
  endfacet
  facet normal 0 0 -1
    outer loop
      vertex 57.245 -14.1021 0
      vertex 59.095 -14.1021 0
      vertex 62.861 -14.5615 0
    endloop
  endfacet
  facet normal 0 0 -1
    outer loop
      vertex 59.095 -10.8979 0
      vertex 63.47 -11.5 0
      vertex 63.4453 -12.1277 0
    endloop
  endfacet
  facet normal 0 0 -1
    outer loop
      vertex -57.555 -10.8979 0
      vertex 63.47 51.5 0
      vertex 57.245 -10.8979 0
    endloop
  endfacet
  facet normal 0 0 -1
    outer loop
      vertex 56.32 52.5 0
      vertex -63.4553 -12.1277 0
      vertex 57.245 54.1021 0
    endloop
  endfacet
  facet normal 0 0 -1
    outer loop
      vertex 63.47 51.5 0
      vertex 59.095 -10.8979 0
      vertex 57.245 -10.8979 0
    endloop
  endfacet
  facet normal 0 0 -1
    outer loop
      vertex 57.245 50.8979 0
      vertex -63.4553 -12.1277 0
      vertex 56.32 52.5 0
    endloop
  endfacet
  facet normal 0 0 -1
    outer loop
      vertex 59.095 50.8979 0
      vertex -63.4553 -12.1277 0
      vertex 57.245 50.8979 0
    endloop
  endfacet
  facet normal 0 0 -1
    outer loop
      vertex 60.02 52.5 0
      vertex 63.249 53.3676 0
      vertex 59.095 50.8979 0
    endloop
  endfacet
  facet normal 0 0 -1
    outer loop
      vertex 60.02 52.5 0
      vertex 63.0785 53.9721 0
      vertex 63.249 53.3676 0
    endloop
  endfacet
  facet normal 0 0 -1
    outer loop
      vertex -63.4553 -12.1277 0
      vertex 59.095 50.8979 0
      vertex 63.3715 52.7515 0
    endloop
  endfacet
  facet normal 0 0 -1
    outer loop
      vertex 59.095 54.1021 0
      vertex 62.861 54.5615 0
      vertex 60.02 52.5 0
    endloop
  endfacet
  facet normal 0 0 -1
    outer loop
      vertex 57.245 54.1021 0
      vertex 61.9421 56.2023 0
      vertex 59.095 54.1021 0
    endloop
  endfacet
  facet normal 0 0 -1
    outer loop
      vertex -63.4553 -12.1277 0
      vertex 61.5532 56.6956 0
      vertex 57.245 54.1021 0
    endloop
  endfacet
  facet normal 0 0 -1
    outer loop
      vertex -60.33 -12.5 0
      vertex -63.4553 -12.1277 0
      vertex -59.405 -10.8979 0
    endloop
  endfacet
  facet normal 0 0 -1
    outer loop
      vertex -60.33 52.5 0
      vertex -59.66 58.3211 0
      vertex -59.405 54.1021 0
    endloop
  endfacet
  facet normal 0 0 -1
    outer loop
      vertex -56.63 -12.5 0
      vertex 58.5315 -18.891 0
      vertex 57.9421 -19.1085 0
    endloop
  endfacet
  facet normal 0 0 -1
    outer loop
      vertex -56.63 -12.5 0
      vertex 57.9421 -19.1085 0
      vertex 57.3376 -19.279 0
    endloop
  endfacet
  facet normal 0 0 -1
    outer loop
      vertex -56.63 -12.5 0
      vertex 57.3376 -19.279 0
      vertex 56.7215 -19.4015 0
    endloop
  endfacet
  facet normal 0 0 -1
    outer loop
      vertex -56.63 -12.5 0
      vertex 56.7215 -19.4015 0
      vertex 56.0977 -19.4753 0
    endloop
  endfacet
  facet normal 0 0 -1
    outer loop
      vertex -56.63 -12.5 0
      vertex 56.0977 -19.4753 0
      vertex 55.47 -19.5 0
    endloop
  endfacet
  facet normal 0 0 -1
    outer loop
      vertex 59.095 -10.8979 0
      vertex 63.4453 -12.1277 0
      vertex 60.02 -12.5 0
    endloop
  endfacet
  facet normal -0.999229 0.0392593 0
    outer loop
      vertex -63.4553 52.1277 0.6
      vertex -63.4553 52.1277 0
      vertex -63.48 51.5 0.6
    endloop
  endfacet
  facet normal -0.999229 0.0392593 0
    outer loop
      vertex -63.48 51.5 0.6
      vertex -63.4553 52.1277 0
      vertex -63.48 51.5 0
    endloop
  endfacet
  facet normal 0 0 1
    outer loop
      vertex -63.4553 -12.1277 0.6
      vertex -63.3815 -12.7515 0.6
      vertex -63.259 -13.3676 0.6
    endloop
  endfacet
  facet normal 0 0 1
    outer loop
      vertex -62.871 -14.5615 0.6
      vertex -63.4553 -12.1277 0.6
      vertex -63.0885 -13.9721 0.6
    endloop
  endfacet
  facet normal 0 0 1
    outer loop
      vertex -63.0885 -13.9721 0.6
      vertex -63.4553 -12.1277 0.6
      vertex -63.259 -13.3676 0.6
    endloop
  endfacet
  facet normal 0 0 1
    outer loop
      vertex -62.6081 -15.1319 0.6
      vertex -63.4553 -12.1277 0.6
      vertex -62.871 -14.5615 0.6
    endloop
  endfacet
  facet normal 0 0 1
    outer loop
      vertex -62.3011 -15.68 0.6
      vertex -63.4553 -12.1277 0.6
      vertex -62.6081 -15.1319 0.6
    endloop
  endfacet
  facet normal 0 0 1
    outer loop
      vertex -61.9521 -16.2023 0.6
      vertex -63.4553 -12.1277 0.6
      vertex -62.3011 -15.68 0.6
    endloop
  endfacet
  facet normal 0 0 1
    outer loop
      vertex -61.5632 -16.6956 0.6
      vertex -63.4553 -12.1277 0.6
      vertex -61.9521 -16.2023 0.6
    endloop
  endfacet
  facet normal 0 0 1
    outer loop
      vertex -61.1369 -17.1569 0.6
      vertex -63.4553 -12.1277 0.6
      vertex -61.5632 -16.6956 0.6
    endloop
  endfacet
  facet normal 0 0 1
    outer loop
      vertex -60.6756 -17.5832 0.6
      vertex -63.4553 -12.1277 0.6
      vertex -61.1369 -17.1569 0.6
    endloop
  endfacet
  facet normal 0 0 1
    outer loop
      vertex -60.1823 -17.9721 0.6
      vertex -63.4553 -12.1277 0.6
      vertex -60.6756 -17.5832 0.6
    endloop
  endfacet
  facet normal 0 0 1
    outer loop
      vertex -59.66 -18.3211 0.6
      vertex -63.4553 -12.1277 0.6
      vertex -60.1823 -17.9721 0.6
    endloop
  endfacet
  facet normal 0 0 1
    outer loop
      vertex -59.1119 -18.6281 0.6
      vertex -63.4553 -12.1277 0.6
      vertex -59.66 -18.3211 0.6
    endloop
  endfacet
  facet normal 0 0 1
    outer loop
      vertex -58.5415 -18.891 0.6
      vertex -63.4553 -12.1277 0.6
      vertex -59.1119 -18.6281 0.6
    endloop
  endfacet
  facet normal 0 0 1
    outer loop
      vertex -57.9521 -19.1085 0.6
      vertex -63.4553 -12.1277 0.6
      vertex -58.5415 -18.891 0.6
    endloop
  endfacet
  facet normal 0 0 1
    outer loop
      vertex -57.3476 -19.279 0.6
      vertex -63.4553 -12.1277 0.6
      vertex -57.9521 -19.1085 0.6
    endloop
  endfacet
  facet normal 0 0 1
    outer loop
      vertex -56.7315 -19.4015 0.6
      vertex -63.4553 -12.1277 0.6
      vertex -57.3476 -19.279 0.6
    endloop
  endfacet
  facet normal 0 0 1
    outer loop
      vertex -56.1077 -19.4753 0.6
      vertex -63.4553 -12.1277 0.6
      vertex -56.7315 -19.4015 0.6
    endloop
  endfacet
  facet normal 0 0 1
    outer loop
      vertex -55.48 -19.5 0.6
      vertex -63.4553 -12.1277 0.6
      vertex -56.1077 -19.4753 0.6
    endloop
  endfacet
  facet normal 0 0 1
    outer loop
      vertex -60.9071 -14.2634 0.6
      vertex -63.4553 -12.1277 0.6
      vertex -55.48 -19.5 0.6
    endloop
  endfacet
  facet normal 0 0 1
    outer loop
      vertex -60.9071 -10.7366 0.6
      vertex -59.4071 -9.64683 0.6
      vertex -63.4553 -12.1277 0.6
    endloop
  endfacet
  facet normal 0 0 1
    outer loop
      vertex 57.2429 55.3532 0.6
      vertex 59.0971 55.3532 0.6
      vertex 61.1269 57.1569 0.6
    endloop
  endfacet
  facet normal 0 0 1
    outer loop
      vertex -59.4071 -9.64683 0.6
      vertex 57.2429 55.3532 0.6
      vertex 60.6656 57.5832 0.6
    endloop
  endfacet
  facet normal 0 0 1
    outer loop
      vertex -59.4071 -9.64683 0.6
      vertex 60.1723 57.9721 0.6
      vertex 59.65 58.3211 0.6
    endloop
  endfacet
  facet normal 0 0 1
    outer loop
      vertex -59.4071 -9.64683 0.6
      vertex 59.1019 58.6281 0.6
      vertex 58.5315 58.891 0.6
    endloop
  endfacet
  facet normal 0 0 1
    outer loop
      vertex -59.4071 -9.64683 0.6
      vertex 58.5315 58.891 0.6
      vertex 57.9421 59.1085 0.6
    endloop
  endfacet
  facet normal 0 0 1
    outer loop
      vertex -59.4071 -9.64683 0.6
      vertex 57.3376 59.279 0.6
      vertex 56.7215 59.4015 0.6
    endloop
  endfacet
  facet normal 0 0 1
    outer loop
      vertex -59.4071 -9.64683 0.6
      vertex 56.0977 59.4753 0.6
      vertex 55.47 59.5 0.6
    endloop
  endfacet
  facet normal 0 0 1
    outer loop
      vertex 59.0971 49.6468 0.6
      vertex 57.2429 49.6468 0.6
      vertex -59.4071 -9.64683 0.6
    endloop
  endfacet
  facet normal 0 0 1
    outer loop
      vertex 60.5971 50.7366 0.6
      vertex 59.0971 49.6468 0.6
      vertex 63.4453 52.1277 0.6
    endloop
  endfacet
  facet normal 0 0 1
    outer loop
      vertex 55.17 52.5 0.6
      vertex 55.7429 54.2634 0.6
      vertex -59.4071 -9.64683 0.6
    endloop
  endfacet
  facet normal 0 0 1
    outer loop
      vertex 60.5971 54.2634 0.6
      vertex 63.0785 53.9721 0.6
      vertex 62.861 54.5615 0.6
    endloop
  endfacet
  facet normal 0 0 1
    outer loop
      vertex 59.0971 55.3532 0.6
      vertex 61.9421 56.2023 0.6
      vertex 61.5532 56.6956 0.6
    endloop
  endfacet
  facet normal 0 0 1
    outer loop
      vertex 60.5971 54.2634 0.6
      vertex 61.17 52.5 0.6
      vertex 63.0785 53.9721 0.6
    endloop
  endfacet
  facet normal 0 0 1
    outer loop
      vertex 59.0971 55.3532 0.6
      vertex 60.5971 54.2634 0.6
      vertex 62.2911 55.68 0.6
    endloop
  endfacet
  facet normal 0 0 1
    outer loop
      vertex -56.0529 54.2634 0.6
      vertex -55.48 52.5 0.6
      vertex -55.48 59.5 0.6
    endloop
  endfacet
  facet normal 0 0 1
    outer loop
      vertex -59.4071 49.6468 0.6
      vertex -60.9071 50.7366 0.6
      vertex -63.4553 -12.1277 0.6
    endloop
  endfacet
  facet normal 0 0 1
    outer loop
      vertex -57.5529 55.3532 0.6
      vertex -56.1077 59.4753 0.6
      vertex -56.7315 59.4015 0.6
    endloop
  endfacet
  facet normal 0 0 1
    outer loop
      vertex -60.9071 54.2634 0.6
      vertex -60.1823 57.9721 0.6
      vertex -60.6756 57.5832 0.6
    endloop
  endfacet
  facet normal 0 0 1
    outer loop
      vertex 60.5971 -14.2634 0.6
      vertex 62.5981 -15.1319 0.6
      vertex 62.861 -14.5615 0.6
    endloop
  endfacet
  facet normal 0 0 1
    outer loop
      vertex -61.9521 56.2023 0.6
      vertex -63.4553 -12.1277 0.6
      vertex -61.5632 56.6956 0.6
    endloop
  endfacet
  facet normal 0 0 1
    outer loop
      vertex -62.3011 55.68 0.6
      vertex -63.4553 -12.1277 0.6
      vertex -61.9521 56.2023 0.6
    endloop
  endfacet
  facet normal 0 0 1
    outer loop
      vertex -62.6081 55.1319 0.6
      vertex -63.4553 -12.1277 0.6
      vertex -62.3011 55.68 0.6
    endloop
  endfacet
  facet normal 0 0 1
    outer loop
      vertex -62.871 54.5615 0.6
      vertex -63.4553 -12.1277 0.6
      vertex -62.6081 55.1319 0.6
    endloop
  endfacet
  facet normal 0 0 1
    outer loop
      vertex -63.0885 53.9721 0.6
      vertex -63.4553 -12.1277 0.6
      vertex -62.871 54.5615 0.6
    endloop
  endfacet
  facet normal 0 0 1
    outer loop
      vertex -63.259 53.3676 0.6
      vertex -63.4553 -12.1277 0.6
      vertex -63.0885 53.9721 0.6
    endloop
  endfacet
  facet normal 0 0 1
    outer loop
      vertex -63.3815 52.7515 0.6
      vertex -63.4553 -12.1277 0.6
      vertex -63.259 53.3676 0.6
    endloop
  endfacet
  facet normal 0 0 1
    outer loop
      vertex -63.4553 52.1277 0.6
      vertex -63.4553 -12.1277 0.6
      vertex -63.3815 52.7515 0.6
    endloop
  endfacet
  facet normal 0 0 1
    outer loop
      vertex -63.48 51.5 0.6
      vertex -63.4553 -12.1277 0.6
      vertex -63.4553 52.1277 0.6
    endloop
  endfacet
  facet normal 0 0 1
    outer loop
      vertex -63.48 -11.5 0.6
      vertex -63.4553 -12.1277 0.6
      vertex -63.48 51.5 0.6
    endloop
  endfacet
  facet normal 0 0 1
    outer loop
      vertex -59.4071 55.3532 0.6
      vertex -57.9521 59.1085 0.6
      vertex -58.5415 58.891 0.6
    endloop
  endfacet
  facet normal 0 0 1
    outer loop
      vertex -56.0529 -10.7366 0.6
      vertex 60.6656 -17.5832 0.6
      vertex 61.1269 -17.1569 0.6
    endloop
  endfacet
  facet normal 0 0 1
    outer loop
      vertex -55.48 52.5 0.6
      vertex -59.4071 -9.64683 0.6
      vertex 55.47 59.5 0.6
    endloop
  endfacet
  facet normal 0 0 1
    outer loop
      vertex -57.5529 49.6468 0.6
      vertex -59.4071 49.6468 0.6
      vertex -63.4553 -12.1277 0.6
    endloop
  endfacet
  facet normal 0 0 1
    outer loop
      vertex -59.4071 -9.64683 0.6
      vertex 63.47 51.5 0.6
      vertex 59.0971 49.6468 0.6
    endloop
  endfacet
  facet normal 0 0 1
    outer loop
      vertex 59.0971 -9.64683 0.6
      vertex 60.5971 -10.7366 0.6
      vertex 63.47 -11.5 0.6
    endloop
  endfacet
  facet normal 0 0 1
    outer loop
      vertex -59.4071 -9.64683 0.6
      vertex -57.5529 -9.64683 0.6
      vertex 63.47 51.5 0.6
    endloop
  endfacet
  facet normal 0 0 1
    outer loop
      vertex 60.6656 -17.5832 0.6
      vertex -55.48 -12.5 0.6
      vertex 60.1723 -17.9721 0.6
    endloop
  endfacet
  facet normal 0 0 1
    outer loop
      vertex 55.47 -19.5 0.6
      vertex -56.0529 -14.2634 0.6
      vertex -55.48 -19.5 0.6
    endloop
  endfacet
  facet normal 0 0 1
    outer loop
      vertex -56.0529 -14.2634 0.6
      vertex -57.5529 -15.3532 0.6
      vertex -55.48 -19.5 0.6
    endloop
  endfacet
  facet normal 0 0 1
    outer loop
      vertex -61.48 52.5 0.6
      vertex -60.9071 54.2634 0.6
      vertex -61.1369 57.1569 0.6
    endloop
  endfacet
  facet normal 0 0 1
    outer loop
      vertex -56.0529 -10.7366 0.6
      vertex 61.1269 -17.1569 0.6
      vertex 61.5532 -16.6956 0.6
    endloop
  endfacet
  facet normal 0 0 1
    outer loop
      vertex -59.4071 -15.3532 0.6
      vertex -60.9071 -14.2634 0.6
      vertex -55.48 -19.5 0.6
    endloop
  endfacet
  facet normal 0 0 1
    outer loop
      vertex -56.0529 -10.7366 0.6
      vertex 61.5532 -16.6956 0.6
      vertex 61.9421 -16.2023 0.6
    endloop
  endfacet
  facet normal 0 0 1
    outer loop
      vertex -61.5632 56.6956 0.6
      vertex -61.48 52.5 0.6
      vertex -61.1369 57.1569 0.6
    endloop
  endfacet
  facet normal 0 0 1
    outer loop
      vertex -61.5632 56.6956 0.6
      vertex -63.4553 -12.1277 0.6
      vertex -61.48 52.5 0.6
    endloop
  endfacet
  facet normal 0 0 1
    outer loop
      vertex -61.1369 57.1569 0.6
      vertex -60.9071 54.2634 0.6
      vertex -60.6756 57.5832 0.6
    endloop
  endfacet
  facet normal 0 0 1
    outer loop
      vertex -59.66 58.3211 0.6
      vertex -59.4071 55.3532 0.6
      vertex -59.1119 58.6281 0.6
    endloop
  endfacet
  facet normal 0 0 1
    outer loop
      vertex -57.3476 59.279 0.6
      vertex -57.5529 55.3532 0.6
      vertex -56.7315 59.4015 0.6
    endloop
  endfacet
  facet normal 0 0 1
    outer loop
      vertex -55.48 52.5 0.6
      vertex -56.0529 50.7366 0.6
      vertex -59.4071 -9.64683 0.6
    endloop
  endfacet
  facet normal 0 0 1
    outer loop
      vertex -55.48 59.5 0.6
      vertex -55.48 52.5 0.6
      vertex 55.47 59.5 0.6
    endloop
  endfacet
  facet normal 0 0 1
    outer loop
      vertex -56.0529 50.7366 0.6
      vertex -63.4553 -12.1277 0.6
      vertex -59.4071 -9.64683 0.6
    endloop
  endfacet
  facet normal 0 0 1
    outer loop
      vertex -56.0529 50.7366 0.6
      vertex -57.5529 49.6468 0.6
      vertex -63.4553 -12.1277 0.6
    endloop
  endfacet
  facet normal 0 0 1
    outer loop
      vertex 55.7429 -14.2634 0.6
      vertex 55.17 -12.5 0.6
      vertex -56.0529 -10.7366 0.6
    endloop
  endfacet
  facet normal 0 0 1
    outer loop
      vertex -57.5529 55.3532 0.6
      vertex -55.48 59.5 0.6
      vertex -56.1077 59.4753 0.6
    endloop
  endfacet
  facet normal 0 0 1
    outer loop
      vertex -57.5529 55.3532 0.6
      vertex -56.0529 54.2634 0.6
      vertex -55.48 59.5 0.6
    endloop
  endfacet
  facet normal 0 0 1
    outer loop
      vertex -59.4071 55.3532 0.6
      vertex -58.5415 58.891 0.6
      vertex -59.1119 58.6281 0.6
    endloop
  endfacet
  facet normal 0 0 1
    outer loop
      vertex -60.9071 54.2634 0.6
      vertex -59.66 58.3211 0.6
      vertex -60.1823 57.9721 0.6
    endloop
  endfacet
  facet normal 0 0 1
    outer loop
      vertex 60.5971 -14.2634 0.6
      vertex 59.0971 -15.3532 0.6
      vertex 62.5981 -15.1319 0.6
    endloop
  endfacet
  facet normal 0 0 1
    outer loop
      vertex 61.17 -12.5 0.6
      vertex 60.5971 -14.2634 0.6
      vertex 63.0785 -13.9721 0.6
    endloop
  endfacet
  facet normal 0 0 1
    outer loop
      vertex 63.47 51.5 0.6
      vertex -57.5529 -9.64683 0.6
      vertex 55.7429 -10.7366 0.6
    endloop
  endfacet
  facet normal 0 0 1
    outer loop
      vertex 63.47 51.5 0.6
      vertex 55.7429 -10.7366 0.6
      vertex 57.2429 -9.64683 0.6
    endloop
  endfacet
  facet normal 0 0 1
    outer loop
      vertex 63.47 51.5 0.6
      vertex 59.0971 -9.64683 0.6
      vertex 63.47 -11.5 0.6
    endloop
  endfacet
  facet normal 0 0 1
    outer loop
      vertex 63.47 51.5 0.6
      vertex 57.2429 -9.64683 0.6
      vertex 59.0971 -9.64683 0.6
    endloop
  endfacet
  facet normal 0 0 1
    outer loop
      vertex 63.4453 -12.1277 0.6
      vertex 61.17 -12.5 0.6
      vertex 63.3715 -12.7515 0.6
    endloop
  endfacet
  facet normal 0 0 1
    outer loop
      vertex 63.0785 -13.9721 0.6
      vertex 60.5971 -14.2634 0.6
      vertex 62.861 -14.5615 0.6
    endloop
  endfacet
  facet normal 0 0 1
    outer loop
      vertex 62.5981 -15.1319 0.6
      vertex 59.0971 -15.3532 0.6
      vertex 62.2911 -15.68 0.6
    endloop
  endfacet
  facet normal 0 0 1
    outer loop
      vertex 59.0971 -15.3532 0.6
      vertex 57.2429 -15.3532 0.6
      vertex 62.2911 -15.68 0.6
    endloop
  endfacet
  facet normal 0 0 1
    outer loop
      vertex 61.17 52.5 0.6
      vertex 63.3715 52.7515 0.6
      vertex 63.249 53.3676 0.6
    endloop
  endfacet
  facet normal 0 0 1
    outer loop
      vertex -59.4071 -9.64683 0.6
      vertex 56.7215 59.4015 0.6
      vertex 56.0977 59.4753 0.6
    endloop
  endfacet
  facet normal 0 0 1
    outer loop
      vertex 59.0971 55.3532 0.6
      vertex 62.2911 55.68 0.6
      vertex 61.9421 56.2023 0.6
    endloop
  endfacet
  facet normal 0 0 1
    outer loop
      vertex 61.1269 57.1569 0.6
      vertex 59.0971 55.3532 0.6
      vertex 61.5532 56.6956 0.6
    endloop
  endfacet
  facet normal 0 0 1
    outer loop
      vertex 57.2429 49.6468 0.6
      vertex 55.7429 50.7366 0.6
      vertex -59.4071 -9.64683 0.6
    endloop
  endfacet
  facet normal 0 0 1
    outer loop
      vertex 62.2911 55.68 0.6
      vertex 60.5971 54.2634 0.6
      vertex 62.5981 55.1319 0.6
    endloop
  endfacet
  facet normal 0 0 1
    outer loop
      vertex -59.4071 -9.64683 0.6
      vertex 57.9421 59.1085 0.6
      vertex 57.3376 59.279 0.6
    endloop
  endfacet
  facet normal 0 0 1
    outer loop
      vertex 63.0785 53.9721 0.6
      vertex 61.17 52.5 0.6
      vertex 63.249 53.3676 0.6
    endloop
  endfacet
  facet normal 0 0 1
    outer loop
      vertex -59.4071 -9.64683 0.6
      vertex 60.6656 57.5832 0.6
      vertex 60.1723 57.9721 0.6
    endloop
  endfacet
  facet normal 0 0 1
    outer loop
      vertex 63.3715 52.7515 0.6
      vertex 60.5971 50.7366 0.6
      vertex 63.4453 52.1277 0.6
    endloop
  endfacet
  facet normal 0 0 1
    outer loop
      vertex 57.2429 55.3532 0.6
      vertex 61.1269 57.1569 0.6
      vertex 60.6656 57.5832 0.6
    endloop
  endfacet
  facet normal 0 0 1
    outer loop
      vertex 63.4453 52.1277 0.6
      vertex 59.0971 49.6468 0.6
      vertex 63.47 51.5 0.6
    endloop
  endfacet
  facet normal 0 0 1
    outer loop
      vertex -56.0529 -10.7366 0.6
      vertex -55.48 -12.5 0.6
      vertex 60.6656 -17.5832 0.6
    endloop
  endfacet
  facet normal 0 0 1
    outer loop
      vertex -59.4071 -9.64683 0.6
      vertex 55.7429 54.2634 0.6
      vertex 57.2429 55.3532 0.6
    endloop
  endfacet
  facet normal 0 0 1
    outer loop
      vertex -59.4071 -9.64683 0.6
      vertex 59.65 58.3211 0.6
      vertex 59.1019 58.6281 0.6
    endloop
  endfacet
  facet normal 0 0 1
    outer loop
      vertex -60.9071 -14.2634 0.6
      vertex -61.48 -12.5 0.6
      vertex -63.4553 -12.1277 0.6
    endloop
  endfacet
  facet normal 0 0 1
    outer loop
      vertex -56.0529 -10.7366 0.6
      vertex 61.9421 -16.2023 0.6
      vertex 62.2911 -15.68 0.6
    endloop
  endfacet
  facet normal 0 0 1
    outer loop
      vertex -56.0529 -10.7366 0.6
      vertex 62.2911 -15.68 0.6
      vertex 57.2429 -15.3532 0.6
    endloop
  endfacet
  facet normal 0 0 1
    outer loop
      vertex 60.5971 54.2634 0.6
      vertex 62.861 54.5615 0.6
      vertex 62.5981 55.1319 0.6
    endloop
  endfacet
  facet normal 0 0 1
    outer loop
      vertex 57.2429 -15.3532 0.6
      vertex 55.7429 -14.2634 0.6
      vertex -56.0529 -10.7366 0.6
    endloop
  endfacet
  facet normal 0 0 1
    outer loop
      vertex 61.17 52.5 0.6
      vertex 60.5971 50.7366 0.6
      vertex 63.3715 52.7515 0.6
    endloop
  endfacet
  facet normal 0 0 1
    outer loop
      vertex 55.7429 50.7366 0.6
      vertex 55.17 52.5 0.6
      vertex -59.4071 -9.64683 0.6
    endloop
  endfacet
  facet normal 0 0 1
    outer loop
      vertex 55.17 -12.5 0.6
      vertex 55.7429 -10.7366 0.6
      vertex -57.5529 -9.64683 0.6
    endloop
  endfacet
  facet normal 0 0 1
    outer loop
      vertex 55.17 -12.5 0.6
      vertex -57.5529 -9.64683 0.6
      vertex -56.0529 -10.7366 0.6
    endloop
  endfacet
  facet normal 0 0 1
    outer loop
      vertex 61.17 -12.5 0.6
      vertex 63.249 -13.3676 0.6
      vertex 63.3715 -12.7515 0.6
    endloop
  endfacet
  facet normal 0 0 1
    outer loop
      vertex 61.17 -12.5 0.6
      vertex 63.0785 -13.9721 0.6
      vertex 63.249 -13.3676 0.6
    endloop
  endfacet
  facet normal 0 0 1
    outer loop
      vertex 60.5971 -10.7366 0.6
      vertex 61.17 -12.5 0.6
      vertex 63.4453 -12.1277 0.6
    endloop
  endfacet
  facet normal 0 0 1
    outer loop
      vertex 60.5971 -10.7366 0.6
      vertex 63.4453 -12.1277 0.6
      vertex 63.47 -11.5 0.6
    endloop
  endfacet
  facet normal 0 0 1
    outer loop
      vertex -59.4071 55.3532 0.6
      vertex -57.5529 55.3532 0.6
      vertex -57.3476 59.279 0.6
    endloop
  endfacet
  facet normal 0 0 1
    outer loop
      vertex -59.4071 55.3532 0.6
      vertex -57.3476 59.279 0.6
      vertex -57.9521 59.1085 0.6
    endloop
  endfacet
  facet normal 0 0 1
    outer loop
      vertex -60.9071 54.2634 0.6
      vertex -59.4071 55.3532 0.6
      vertex -59.66 58.3211 0.6
    endloop
  endfacet
  facet normal 0 0 1
    outer loop
      vertex -60.9071 50.7366 0.6
      vertex -61.48 52.5 0.6
      vertex -63.4553 -12.1277 0.6
    endloop
  endfacet
  facet normal 0 0 1
    outer loop
      vertex -55.48 -12.5 0.6
      vertex -56.0529 -14.2634 0.6
      vertex 55.47 -19.5 0.6
    endloop
  endfacet
  facet normal 0 0 1
    outer loop
      vertex -55.48 -12.5 0.6
      vertex 59.65 -18.3211 0.6
      vertex 60.1723 -17.9721 0.6
    endloop
  endfacet
  facet normal 0 0 1
    outer loop
      vertex -55.48 -12.5 0.6
      vertex 59.1019 -18.6281 0.6
      vertex 59.65 -18.3211 0.6
    endloop
  endfacet
  facet normal 0 0 1
    outer loop
      vertex -55.48 -12.5 0.6
      vertex 58.5315 -18.891 0.6
      vertex 59.1019 -18.6281 0.6
    endloop
  endfacet
  facet normal 0 0 1
    outer loop
      vertex -55.48 -12.5 0.6
      vertex 57.9421 -19.1085 0.6
      vertex 58.5315 -18.891 0.6
    endloop
  endfacet
  facet normal 0 0 1
    outer loop
      vertex -55.48 -12.5 0.6
      vertex 57.3376 -19.279 0.6
      vertex 57.9421 -19.1085 0.6
    endloop
  endfacet
  facet normal 0 0 1
    outer loop
      vertex -55.48 -12.5 0.6
      vertex 56.7215 -19.4015 0.6
      vertex 57.3376 -19.279 0.6
    endloop
  endfacet
  facet normal 0 0 1
    outer loop
      vertex -55.48 -12.5 0.6
      vertex 56.0977 -19.4753 0.6
      vertex 56.7215 -19.4015 0.6
    endloop
  endfacet
  facet normal 0 0 1
    outer loop
      vertex -55.48 -12.5 0.6
      vertex 55.47 -19.5 0.6
      vertex 56.0977 -19.4753 0.6
    endloop
  endfacet
  facet normal 0 0 1
    outer loop
      vertex -57.5529 -15.3532 0.6
      vertex -59.4071 -15.3532 0.6
      vertex -55.48 -19.5 0.6
    endloop
  endfacet
  facet normal 0 0 1
    outer loop
      vertex -61.48 -12.5 0.6
      vertex -60.9071 -10.7366 0.6
      vertex -63.4553 -12.1277 0.6
    endloop
  endfacet
  facet normal -0.993068 -0.117537 0
    outer loop
      vertex -63.4553 -12.1277 0
      vertex -63.3815 -12.7515 0
      vertex -63.4553 -12.1277 0.6
    endloop
  endfacet
  facet normal -0.993068 -0.117537 0
    outer loop
      vertex -63.4553 -12.1277 0.6
      vertex -63.3815 -12.7515 0
      vertex -63.3815 -12.7515 0.6
    endloop
  endfacet
  facet normal -0.980785 -0.195091 0
    outer loop
      vertex -63.3815 -12.7515 0
      vertex -63.259 -13.3676 0
      vertex -63.3815 -12.7515 0.6
    endloop
  endfacet
  facet normal -0.980785 -0.195091 0
    outer loop
      vertex -63.3815 -12.7515 0.6
      vertex -63.259 -13.3676 0
      vertex -63.259 -13.3676 0.6
    endloop
  endfacet
  facet normal -0.962455 -0.27144 0
    outer loop
      vertex -63.259 -13.3676 0
      vertex -63.0885 -13.9721 0
      vertex -63.259 -13.3676 0.6
    endloop
  endfacet
  facet normal -0.962455 -0.27144 0
    outer loop
      vertex -63.259 -13.3676 0.6
      vertex -63.0885 -13.9721 0
      vertex -63.0885 -13.9721 0.6
    endloop
  endfacet
  facet normal -0.938191 -0.346117 0
    outer loop
      vertex -63.0885 -13.9721 0
      vertex -62.871 -14.5615 0
      vertex -63.0885 -13.9721 0.6
    endloop
  endfacet
  facet normal -0.938191 -0.346117 0
    outer loop
      vertex -63.0885 -13.9721 0.6
      vertex -62.871 -14.5615 0
      vertex -62.871 -14.5615 0.6
    endloop
  endfacet
  facet normal -0.908143 -0.418659 0
    outer loop
      vertex -62.871 -14.5615 0
      vertex -62.6081 -15.1319 0
      vertex -62.871 -14.5615 0.6
    endloop
  endfacet
  facet normal -0.908143 -0.418659 0
    outer loop
      vertex -62.871 -14.5615 0.6
      vertex -62.6081 -15.1319 0
      vertex -62.6081 -15.1319 0.6
    endloop
  endfacet
  facet normal -0.872496 -0.488621 0
    outer loop
      vertex -62.6081 -15.1319 0
      vertex -62.3011 -15.68 0
      vertex -62.6081 -15.1319 0.6
    endloop
  endfacet
  facet normal -0.872496 -0.488621 0
    outer loop
      vertex -62.6081 -15.1319 0.6
      vertex -62.3011 -15.68 0
      vertex -62.3011 -15.68 0.6
    endloop
  endfacet
  facet normal -0.83147 -0.55557 0
    outer loop
      vertex -62.3011 -15.68 0
      vertex -61.9521 -16.2023 0
      vertex -62.3011 -15.68 0.6
    endloop
  endfacet
  facet normal -0.83147 -0.55557 0
    outer loop
      vertex -62.3011 -15.68 0.6
      vertex -61.9521 -16.2023 0
      vertex -61.9521 -16.2023 0.6
    endloop
  endfacet
  facet normal -0.785317 -0.619094 0
    outer loop
      vertex -61.9521 -16.2023 0
      vertex -61.5632 -16.6956 0
      vertex -61.9521 -16.2023 0.6
    endloop
  endfacet
  facet normal -0.785317 -0.619094 0
    outer loop
      vertex -61.9521 -16.2023 0.6
      vertex -61.5632 -16.6956 0
      vertex -61.5632 -16.6956 0.6
    endloop
  endfacet
  facet normal -0.734322 -0.678801 0
    outer loop
      vertex -61.5632 -16.6956 0
      vertex -61.1369 -17.1569 0
      vertex -61.5632 -16.6956 0.6
    endloop
  endfacet
  facet normal -0.734322 -0.678801 0
    outer loop
      vertex -61.5632 -16.6956 0.6
      vertex -61.1369 -17.1569 0
      vertex -61.1369 -17.1569 0.6
    endloop
  endfacet
  facet normal -0.678801 -0.734322 0
    outer loop
      vertex -61.1369 -17.1569 0.6
      vertex -61.1369 -17.1569 0
      vertex -60.6756 -17.5832 0
    endloop
  endfacet
  facet normal -0.678801 -0.734322 0
    outer loop
      vertex -60.6756 -17.5832 0.6
      vertex -61.1369 -17.1569 0.6
      vertex -60.6756 -17.5832 0
    endloop
  endfacet
  facet normal -0.619094 -0.785317 0
    outer loop
      vertex -60.6756 -17.5832 0.6
      vertex -60.6756 -17.5832 0
      vertex -60.1823 -17.9721 0
    endloop
  endfacet
  facet normal -0.619094 -0.785317 0
    outer loop
      vertex -60.1823 -17.9721 0.6
      vertex -60.6756 -17.5832 0.6
      vertex -60.1823 -17.9721 0
    endloop
  endfacet
  facet normal -0.55557 -0.83147 0
    outer loop
      vertex -60.1823 -17.9721 0.6
      vertex -60.1823 -17.9721 0
      vertex -59.66 -18.3211 0
    endloop
  endfacet
  facet normal -0.55557 -0.83147 0
    outer loop
      vertex -59.66 -18.3211 0.6
      vertex -60.1823 -17.9721 0.6
      vertex -59.66 -18.3211 0
    endloop
  endfacet
  facet normal -0.488621 -0.872496 0
    outer loop
      vertex -59.66 -18.3211 0.6
      vertex -59.66 -18.3211 0
      vertex -59.1119 -18.6281 0
    endloop
  endfacet
  facet normal -0.488621 -0.872496 0
    outer loop
      vertex -59.1119 -18.6281 0.6
      vertex -59.66 -18.3211 0.6
      vertex -59.1119 -18.6281 0
    endloop
  endfacet
  facet normal -0.418659 -0.908143 0
    outer loop
      vertex -59.1119 -18.6281 0.6
      vertex -59.1119 -18.6281 0
      vertex -58.5415 -18.891 0
    endloop
  endfacet
  facet normal -0.418659 -0.908143 0
    outer loop
      vertex -58.5415 -18.891 0.6
      vertex -59.1119 -18.6281 0.6
      vertex -58.5415 -18.891 0
    endloop
  endfacet
  facet normal -0.346117 -0.938191 0
    outer loop
      vertex -58.5415 -18.891 0.6
      vertex -58.5415 -18.891 0
      vertex -57.9521 -19.1085 0
    endloop
  endfacet
  facet normal -0.346117 -0.938191 0
    outer loop
      vertex -57.9521 -19.1085 0.6
      vertex -58.5415 -18.891 0.6
      vertex -57.9521 -19.1085 0
    endloop
  endfacet
  facet normal -0.27144 -0.962455 0
    outer loop
      vertex -57.9521 -19.1085 0.6
      vertex -57.9521 -19.1085 0
      vertex -57.3476 -19.279 0
    endloop
  endfacet
  facet normal -0.27144 -0.962455 0
    outer loop
      vertex -57.3476 -19.279 0.6
      vertex -57.9521 -19.1085 0.6
      vertex -57.3476 -19.279 0
    endloop
  endfacet
  facet normal -0.195091 -0.980785 0
    outer loop
      vertex -57.3476 -19.279 0.6
      vertex -57.3476 -19.279 0
      vertex -56.7315 -19.4015 0
    endloop
  endfacet
  facet normal -0.195091 -0.980785 0
    outer loop
      vertex -56.7315 -19.4015 0.6
      vertex -57.3476 -19.279 0.6
      vertex -56.7315 -19.4015 0
    endloop
  endfacet
  facet normal -0.117537 -0.993068 0
    outer loop
      vertex -56.7315 -19.4015 0.6
      vertex -56.7315 -19.4015 0
      vertex -56.1077 -19.4753 0
    endloop
  endfacet
  facet normal -0.117537 -0.993068 0
    outer loop
      vertex -56.1077 -19.4753 0.6
      vertex -56.7315 -19.4015 0.6
      vertex -56.1077 -19.4753 0
    endloop
  endfacet
  facet normal -0.0392593 -0.999229 0
    outer loop
      vertex -56.1077 -19.4753 0.6
      vertex -56.1077 -19.4753 0
      vertex -55.48 -19.5 0
    endloop
  endfacet
  facet normal -0.0392593 -0.999229 0
    outer loop
      vertex -55.48 -19.5 0.6
      vertex -56.1077 -19.4753 0.6
      vertex -55.48 -19.5 0
    endloop
  endfacet
  facet normal 0 -1 0
    outer loop
      vertex -55.48 -19.5 0.6
      vertex -55.48 -19.5 0
      vertex 55.47 -19.5 0
    endloop
  endfacet
  facet normal 0 -1 0
    outer loop
      vertex 55.47 -19.5 0.6
      vertex -55.48 -19.5 0.6
      vertex 55.47 -19.5 0
    endloop
  endfacet
  facet normal 0.0392593 -0.999229 0
    outer loop
      vertex 56.0977 -19.4753 0
      vertex 56.0977 -19.4753 0.6
      vertex 55.47 -19.5 0.6
    endloop
  endfacet
  facet normal 0.0392593 -0.999229 0
    outer loop
      vertex 55.47 -19.5 0
      vertex 56.0977 -19.4753 0
      vertex 55.47 -19.5 0.6
    endloop
  endfacet
  facet normal 0.117537 -0.993068 0
    outer loop
      vertex 56.7215 -19.4015 0
      vertex 56.7215 -19.4015 0.6
      vertex 56.0977 -19.4753 0.6
    endloop
  endfacet
  facet normal 0.117537 -0.993068 0
    outer loop
      vertex 56.0977 -19.4753 0
      vertex 56.7215 -19.4015 0
      vertex 56.0977 -19.4753 0.6
    endloop
  endfacet
  facet normal 0.195091 -0.980785 0
    outer loop
      vertex 57.3376 -19.279 0
      vertex 57.3376 -19.279 0.6
      vertex 56.7215 -19.4015 0.6
    endloop
  endfacet
  facet normal 0.195091 -0.980785 0
    outer loop
      vertex 56.7215 -19.4015 0
      vertex 57.3376 -19.279 0
      vertex 56.7215 -19.4015 0.6
    endloop
  endfacet
  facet normal 0.27144 -0.962455 0
    outer loop
      vertex 57.9421 -19.1085 0
      vertex 57.9421 -19.1085 0.6
      vertex 57.3376 -19.279 0.6
    endloop
  endfacet
  facet normal 0.27144 -0.962455 0
    outer loop
      vertex 57.3376 -19.279 0
      vertex 57.9421 -19.1085 0
      vertex 57.3376 -19.279 0.6
    endloop
  endfacet
  facet normal 0.346117 -0.938191 0
    outer loop
      vertex 58.5315 -18.891 0
      vertex 58.5315 -18.891 0.6
      vertex 57.9421 -19.1085 0.6
    endloop
  endfacet
  facet normal 0.346117 -0.938191 0
    outer loop
      vertex 57.9421 -19.1085 0
      vertex 58.5315 -18.891 0
      vertex 57.9421 -19.1085 0.6
    endloop
  endfacet
  facet normal 0.418659 -0.908143 0
    outer loop
      vertex 59.1019 -18.6281 0
      vertex 59.1019 -18.6281 0.6
      vertex 58.5315 -18.891 0.6
    endloop
  endfacet
  facet normal 0.418659 -0.908143 0
    outer loop
      vertex 58.5315 -18.891 0
      vertex 59.1019 -18.6281 0
      vertex 58.5315 -18.891 0.6
    endloop
  endfacet
  facet normal 0.488621 -0.872496 0
    outer loop
      vertex 59.65 -18.3211 0
      vertex 59.65 -18.3211 0.6
      vertex 59.1019 -18.6281 0.6
    endloop
  endfacet
  facet normal 0.488621 -0.872496 0
    outer loop
      vertex 59.1019 -18.6281 0
      vertex 59.65 -18.3211 0
      vertex 59.1019 -18.6281 0.6
    endloop
  endfacet
  facet normal 0.55557 -0.83147 0
    outer loop
      vertex 60.1723 -17.9721 0
      vertex 60.1723 -17.9721 0.6
      vertex 59.65 -18.3211 0.6
    endloop
  endfacet
  facet normal 0.55557 -0.83147 0
    outer loop
      vertex 59.65 -18.3211 0
      vertex 60.1723 -17.9721 0
      vertex 59.65 -18.3211 0.6
    endloop
  endfacet
  facet normal 0.619094 -0.785317 0
    outer loop
      vertex 60.6656 -17.5832 0
      vertex 60.6656 -17.5832 0.6
      vertex 60.1723 -17.9721 0.6
    endloop
  endfacet
  facet normal 0.619094 -0.785317 0
    outer loop
      vertex 60.1723 -17.9721 0
      vertex 60.6656 -17.5832 0
      vertex 60.1723 -17.9721 0.6
    endloop
  endfacet
  facet normal 0.678801 -0.734322 0
    outer loop
      vertex 61.1269 -17.1569 0
      vertex 61.1269 -17.1569 0.6
      vertex 60.6656 -17.5832 0.6
    endloop
  endfacet
  facet normal 0.678801 -0.734322 0
    outer loop
      vertex 60.6656 -17.5832 0
      vertex 61.1269 -17.1569 0
      vertex 60.6656 -17.5832 0.6
    endloop
  endfacet
  facet normal 0.734322 -0.678801 0
    outer loop
      vertex 61.5532 -16.6956 0
      vertex 61.5532 -16.6956 0.6
      vertex 61.1269 -17.1569 0.6
    endloop
  endfacet
  facet normal 0.734322 -0.678801 0
    outer loop
      vertex 61.1269 -17.1569 0
      vertex 61.5532 -16.6956 0
      vertex 61.1269 -17.1569 0.6
    endloop
  endfacet
  facet normal 0.785317 -0.619094 0
    outer loop
      vertex 61.9421 -16.2023 0
      vertex 61.9421 -16.2023 0.6
      vertex 61.5532 -16.6956 0.6
    endloop
  endfacet
  facet normal 0.785317 -0.619094 0
    outer loop
      vertex 61.5532 -16.6956 0
      vertex 61.9421 -16.2023 0
      vertex 61.5532 -16.6956 0.6
    endloop
  endfacet
  facet normal 0.83147 -0.55557 0
    outer loop
      vertex 62.2911 -15.68 0
      vertex 62.2911 -15.68 0.6
      vertex 61.9421 -16.2023 0.6
    endloop
  endfacet
  facet normal 0.83147 -0.55557 0
    outer loop
      vertex 61.9421 -16.2023 0
      vertex 62.2911 -15.68 0
      vertex 61.9421 -16.2023 0.6
    endloop
  endfacet
  facet normal 0.872496 -0.488621 0
    outer loop
      vertex 62.5981 -15.1319 0
      vertex 62.5981 -15.1319 0.6
      vertex 62.2911 -15.68 0.6
    endloop
  endfacet
  facet normal 0.872496 -0.488621 0
    outer loop
      vertex 62.2911 -15.68 0
      vertex 62.5981 -15.1319 0
      vertex 62.2911 -15.68 0.6
    endloop
  endfacet
  facet normal 0.908143 -0.418659 0
    outer loop
      vertex 62.861 -14.5615 0
      vertex 62.861 -14.5615 0.6
      vertex 62.5981 -15.1319 0.6
    endloop
  endfacet
  facet normal 0.908143 -0.418659 0
    outer loop
      vertex 62.5981 -15.1319 0
      vertex 62.861 -14.5615 0
      vertex 62.5981 -15.1319 0.6
    endloop
  endfacet
  facet normal 0.938191 -0.346117 0
    outer loop
      vertex 63.0785 -13.9721 0
      vertex 63.0785 -13.9721 0.6
      vertex 62.861 -14.5615 0.6
    endloop
  endfacet
  facet normal 0.938191 -0.346117 0
    outer loop
      vertex 62.861 -14.5615 0
      vertex 63.0785 -13.9721 0
      vertex 62.861 -14.5615 0.6
    endloop
  endfacet
  facet normal 0.962455 -0.27144 0
    outer loop
      vertex 63.249 -13.3676 0
      vertex 63.249 -13.3676 0.6
      vertex 63.0785 -13.9721 0.6
    endloop
  endfacet
  facet normal 0.962455 -0.27144 0
    outer loop
      vertex 63.0785 -13.9721 0
      vertex 63.249 -13.3676 0
      vertex 63.0785 -13.9721 0.6
    endloop
  endfacet
  facet normal 0.980785 -0.195091 0
    outer loop
      vertex 63.3715 -12.7515 0
      vertex 63.3715 -12.7515 0.6
      vertex 63.249 -13.3676 0.6
    endloop
  endfacet
  facet normal 0.980785 -0.195091 0
    outer loop
      vertex 63.249 -13.3676 0
      vertex 63.3715 -12.7515 0
      vertex 63.249 -13.3676 0.6
    endloop
  endfacet
  facet normal 0.993068 -0.117537 0
    outer loop
      vertex 63.4453 -12.1277 0
      vertex 63.4453 -12.1277 0.6
      vertex 63.3715 -12.7515 0.6
    endloop
  endfacet
  facet normal 0.993068 -0.117537 0
    outer loop
      vertex 63.3715 -12.7515 0
      vertex 63.4453 -12.1277 0
      vertex 63.3715 -12.7515 0.6
    endloop
  endfacet
  facet normal 0.999229 -0.0392593 0
    outer loop
      vertex 63.47 -11.5 0
      vertex 63.47 -11.5 0.6
      vertex 63.4453 -12.1277 0.6
    endloop
  endfacet
  facet normal 0.999229 -0.0392593 0
    outer loop
      vertex 63.4453 -12.1277 0
      vertex 63.47 -11.5 0
      vertex 63.4453 -12.1277 0.6
    endloop
  endfacet
  facet normal 1 0 0
    outer loop
      vertex 63.47 -11.5 0.6
      vertex 63.47 -11.5 0
      vertex 63.47 51.5 0
    endloop
  endfacet
  facet normal 1 0 0
    outer loop
      vertex 63.47 51.5 0.6
      vertex 63.47 -11.5 0.6
      vertex 63.47 51.5 0
    endloop
  endfacet
  facet normal 0.999229 0.0392593 0
    outer loop
      vertex 63.47 51.5 0
      vertex 63.4453 52.1277 0
      vertex 63.4453 52.1277 0.6
    endloop
  endfacet
  facet normal 0.999229 0.0392593 0
    outer loop
      vertex 63.47 51.5 0.6
      vertex 63.47 51.5 0
      vertex 63.4453 52.1277 0.6
    endloop
  endfacet
  facet normal 0.993068 0.117537 0
    outer loop
      vertex 63.4453 52.1277 0
      vertex 63.3715 52.7515 0
      vertex 63.3715 52.7515 0.6
    endloop
  endfacet
  facet normal 0.993068 0.117537 0
    outer loop
      vertex 63.4453 52.1277 0.6
      vertex 63.4453 52.1277 0
      vertex 63.3715 52.7515 0.6
    endloop
  endfacet
  facet normal 0.980785 0.195091 0
    outer loop
      vertex 63.3715 52.7515 0
      vertex 63.249 53.3676 0
      vertex 63.249 53.3676 0.6
    endloop
  endfacet
  facet normal 0.980785 0.195091 0
    outer loop
      vertex 63.3715 52.7515 0.6
      vertex 63.3715 52.7515 0
      vertex 63.249 53.3676 0.6
    endloop
  endfacet
  facet normal 0.962455 0.27144 0
    outer loop
      vertex 63.249 53.3676 0
      vertex 63.0785 53.9721 0
      vertex 63.0785 53.9721 0.6
    endloop
  endfacet
  facet normal 0.962455 0.27144 0
    outer loop
      vertex 63.249 53.3676 0.6
      vertex 63.249 53.3676 0
      vertex 63.0785 53.9721 0.6
    endloop
  endfacet
  facet normal 0.938191 0.346117 0
    outer loop
      vertex 63.0785 53.9721 0
      vertex 62.861 54.5615 0
      vertex 62.861 54.5615 0.6
    endloop
  endfacet
  facet normal 0.938191 0.346117 0
    outer loop
      vertex 63.0785 53.9721 0.6
      vertex 63.0785 53.9721 0
      vertex 62.861 54.5615 0.6
    endloop
  endfacet
  facet normal 0.908143 0.418659 0
    outer loop
      vertex 62.861 54.5615 0
      vertex 62.5981 55.1319 0
      vertex 62.5981 55.1319 0.6
    endloop
  endfacet
  facet normal 0.908143 0.418659 0
    outer loop
      vertex 62.861 54.5615 0.6
      vertex 62.861 54.5615 0
      vertex 62.5981 55.1319 0.6
    endloop
  endfacet
  facet normal 0.872496 0.488621 0
    outer loop
      vertex 62.5981 55.1319 0
      vertex 62.2911 55.68 0
      vertex 62.2911 55.68 0.6
    endloop
  endfacet
  facet normal 0.872496 0.488621 0
    outer loop
      vertex 62.5981 55.1319 0.6
      vertex 62.5981 55.1319 0
      vertex 62.2911 55.68 0.6
    endloop
  endfacet
  facet normal 0.83147 0.55557 0
    outer loop
      vertex 62.2911 55.68 0
      vertex 61.9421 56.2023 0
      vertex 61.9421 56.2023 0.6
    endloop
  endfacet
  facet normal 0.83147 0.55557 0
    outer loop
      vertex 62.2911 55.68 0.6
      vertex 62.2911 55.68 0
      vertex 61.9421 56.2023 0.6
    endloop
  endfacet
  facet normal 0.785317 0.619094 0
    outer loop
      vertex 61.9421 56.2023 0
      vertex 61.5532 56.6956 0
      vertex 61.5532 56.6956 0.6
    endloop
  endfacet
  facet normal 0.785317 0.619094 0
    outer loop
      vertex 61.9421 56.2023 0.6
      vertex 61.9421 56.2023 0
      vertex 61.5532 56.6956 0.6
    endloop
  endfacet
  facet normal 0.734322 0.678801 0
    outer loop
      vertex 61.5532 56.6956 0
      vertex 61.1269 57.1569 0
      vertex 61.1269 57.1569 0.6
    endloop
  endfacet
  facet normal 0.734322 0.678801 0
    outer loop
      vertex 61.5532 56.6956 0.6
      vertex 61.5532 56.6956 0
      vertex 61.1269 57.1569 0.6
    endloop
  endfacet
  facet normal 0.678801 0.734322 0
    outer loop
      vertex 60.6656 57.5832 0
      vertex 60.6656 57.5832 0.6
      vertex 61.1269 57.1569 0
    endloop
  endfacet
  facet normal 0.678801 0.734322 0
    outer loop
      vertex 61.1269 57.1569 0
      vertex 60.6656 57.5832 0.6
      vertex 61.1269 57.1569 0.6
    endloop
  endfacet
  facet normal 0.619094 0.785317 0
    outer loop
      vertex 60.1723 57.9721 0
      vertex 60.1723 57.9721 0.6
      vertex 60.6656 57.5832 0
    endloop
  endfacet
  facet normal 0.619094 0.785317 0
    outer loop
      vertex 60.6656 57.5832 0
      vertex 60.1723 57.9721 0.6
      vertex 60.6656 57.5832 0.6
    endloop
  endfacet
  facet normal 0.55557 0.83147 0
    outer loop
      vertex 59.65 58.3211 0
      vertex 59.65 58.3211 0.6
      vertex 60.1723 57.9721 0
    endloop
  endfacet
  facet normal 0.55557 0.83147 0
    outer loop
      vertex 60.1723 57.9721 0
      vertex 59.65 58.3211 0.6
      vertex 60.1723 57.9721 0.6
    endloop
  endfacet
  facet normal 0.488621 0.872496 0
    outer loop
      vertex 59.1019 58.6281 0
      vertex 59.1019 58.6281 0.6
      vertex 59.65 58.3211 0
    endloop
  endfacet
  facet normal 0.488621 0.872496 0
    outer loop
      vertex 59.65 58.3211 0
      vertex 59.1019 58.6281 0.6
      vertex 59.65 58.3211 0.6
    endloop
  endfacet
  facet normal 0.418659 0.908143 0
    outer loop
      vertex 58.5315 58.891 0
      vertex 58.5315 58.891 0.6
      vertex 59.1019 58.6281 0
    endloop
  endfacet
  facet normal 0.418659 0.908143 0
    outer loop
      vertex 59.1019 58.6281 0
      vertex 58.5315 58.891 0.6
      vertex 59.1019 58.6281 0.6
    endloop
  endfacet
  facet normal 0.346117 0.938191 0
    outer loop
      vertex 57.9421 59.1085 0
      vertex 57.9421 59.1085 0.6
      vertex 58.5315 58.891 0
    endloop
  endfacet
  facet normal 0.346117 0.938191 0
    outer loop
      vertex 58.5315 58.891 0
      vertex 57.9421 59.1085 0.6
      vertex 58.5315 58.891 0.6
    endloop
  endfacet
  facet normal 0.27144 0.962455 0
    outer loop
      vertex 57.3376 59.279 0
      vertex 57.3376 59.279 0.6
      vertex 57.9421 59.1085 0
    endloop
  endfacet
  facet normal 0.27144 0.962455 0
    outer loop
      vertex 57.9421 59.1085 0
      vertex 57.3376 59.279 0.6
      vertex 57.9421 59.1085 0.6
    endloop
  endfacet
  facet normal 0.195091 0.980785 0
    outer loop
      vertex 56.7215 59.4015 0
      vertex 56.7215 59.4015 0.6
      vertex 57.3376 59.279 0
    endloop
  endfacet
  facet normal 0.195091 0.980785 0
    outer loop
      vertex 57.3376 59.279 0
      vertex 56.7215 59.4015 0.6
      vertex 57.3376 59.279 0.6
    endloop
  endfacet
  facet normal 0.117537 0.993068 0
    outer loop
      vertex 56.0977 59.4753 0
      vertex 56.0977 59.4753 0.6
      vertex 56.7215 59.4015 0
    endloop
  endfacet
  facet normal 0.117537 0.993068 0
    outer loop
      vertex 56.7215 59.4015 0
      vertex 56.0977 59.4753 0.6
      vertex 56.7215 59.4015 0.6
    endloop
  endfacet
  facet normal 0.0392593 0.999229 0
    outer loop
      vertex 55.47 59.5 0
      vertex 55.47 59.5 0.6
      vertex 56.0977 59.4753 0
    endloop
  endfacet
  facet normal 0.0392593 0.999229 0
    outer loop
      vertex 56.0977 59.4753 0
      vertex 55.47 59.5 0.6
      vertex 56.0977 59.4753 0.6
    endloop
  endfacet
  facet normal 0 1 0
    outer loop
      vertex -55.48 59.5 0
      vertex -55.48 59.5 0.6
      vertex 55.47 59.5 0
    endloop
  endfacet
  facet normal 0 1 0
    outer loop
      vertex 55.47 59.5 0
      vertex -55.48 59.5 0.6
      vertex 55.47 59.5 0.6
    endloop
  endfacet
  facet normal -0.0392593 0.999229 0
    outer loop
      vertex -55.48 59.5 0.6
      vertex -55.48 59.5 0
      vertex -56.1077 59.4753 0.6
    endloop
  endfacet
  facet normal -0.0392593 0.999229 0
    outer loop
      vertex -56.1077 59.4753 0.6
      vertex -55.48 59.5 0
      vertex -56.1077 59.4753 0
    endloop
  endfacet
  facet normal -0.117537 0.993068 0
    outer loop
      vertex -56.1077 59.4753 0.6
      vertex -56.1077 59.4753 0
      vertex -56.7315 59.4015 0.6
    endloop
  endfacet
  facet normal -0.117537 0.993068 0
    outer loop
      vertex -56.7315 59.4015 0.6
      vertex -56.1077 59.4753 0
      vertex -56.7315 59.4015 0
    endloop
  endfacet
  facet normal -0.195091 0.980785 0
    outer loop
      vertex -56.7315 59.4015 0.6
      vertex -56.7315 59.4015 0
      vertex -57.3476 59.279 0.6
    endloop
  endfacet
  facet normal -0.195091 0.980785 0
    outer loop
      vertex -57.3476 59.279 0.6
      vertex -56.7315 59.4015 0
      vertex -57.3476 59.279 0
    endloop
  endfacet
  facet normal -0.27144 0.962455 0
    outer loop
      vertex -57.3476 59.279 0.6
      vertex -57.3476 59.279 0
      vertex -57.9521 59.1085 0.6
    endloop
  endfacet
  facet normal -0.27144 0.962455 0
    outer loop
      vertex -57.9521 59.1085 0.6
      vertex -57.3476 59.279 0
      vertex -57.9521 59.1085 0
    endloop
  endfacet
  facet normal -0.346117 0.938191 0
    outer loop
      vertex -57.9521 59.1085 0.6
      vertex -57.9521 59.1085 0
      vertex -58.5415 58.891 0.6
    endloop
  endfacet
  facet normal -0.346117 0.938191 0
    outer loop
      vertex -58.5415 58.891 0.6
      vertex -57.9521 59.1085 0
      vertex -58.5415 58.891 0
    endloop
  endfacet
  facet normal -0.418659 0.908143 0
    outer loop
      vertex -58.5415 58.891 0.6
      vertex -58.5415 58.891 0
      vertex -59.1119 58.6281 0.6
    endloop
  endfacet
  facet normal -0.418659 0.908143 0
    outer loop
      vertex -59.1119 58.6281 0.6
      vertex -58.5415 58.891 0
      vertex -59.1119 58.6281 0
    endloop
  endfacet
  facet normal -0.488621 0.872496 0
    outer loop
      vertex -59.1119 58.6281 0.6
      vertex -59.1119 58.6281 0
      vertex -59.66 58.3211 0.6
    endloop
  endfacet
  facet normal -0.488621 0.872496 0
    outer loop
      vertex -59.66 58.3211 0.6
      vertex -59.1119 58.6281 0
      vertex -59.66 58.3211 0
    endloop
  endfacet
  facet normal -0.55557 0.83147 0
    outer loop
      vertex -59.66 58.3211 0.6
      vertex -59.66 58.3211 0
      vertex -60.1823 57.9721 0.6
    endloop
  endfacet
  facet normal -0.55557 0.83147 0
    outer loop
      vertex -60.1823 57.9721 0.6
      vertex -59.66 58.3211 0
      vertex -60.1823 57.9721 0
    endloop
  endfacet
  facet normal -0.619094 0.785317 0
    outer loop
      vertex -60.1823 57.9721 0.6
      vertex -60.1823 57.9721 0
      vertex -60.6756 57.5832 0.6
    endloop
  endfacet
  facet normal -0.619094 0.785317 0
    outer loop
      vertex -60.6756 57.5832 0.6
      vertex -60.1823 57.9721 0
      vertex -60.6756 57.5832 0
    endloop
  endfacet
  facet normal -0.678801 0.734322 0
    outer loop
      vertex -60.6756 57.5832 0.6
      vertex -60.6756 57.5832 0
      vertex -61.1369 57.1569 0.6
    endloop
  endfacet
  facet normal -0.678801 0.734322 0
    outer loop
      vertex -61.1369 57.1569 0.6
      vertex -60.6756 57.5832 0
      vertex -61.1369 57.1569 0
    endloop
  endfacet
  facet normal -0.734322 0.678801 0
    outer loop
      vertex -61.1369 57.1569 0.6
      vertex -61.1369 57.1569 0
      vertex -61.5632 56.6956 0.6
    endloop
  endfacet
  facet normal -0.734322 0.678801 0
    outer loop
      vertex -61.5632 56.6956 0.6
      vertex -61.1369 57.1569 0
      vertex -61.5632 56.6956 0
    endloop
  endfacet
  facet normal -0.785317 0.619094 0
    outer loop
      vertex -61.5632 56.6956 0.6
      vertex -61.5632 56.6956 0
      vertex -61.9521 56.2023 0.6
    endloop
  endfacet
  facet normal -0.785317 0.619094 0
    outer loop
      vertex -61.9521 56.2023 0.6
      vertex -61.5632 56.6956 0
      vertex -61.9521 56.2023 0
    endloop
  endfacet
  facet normal -0.83147 0.55557 0
    outer loop
      vertex -61.9521 56.2023 0.6
      vertex -61.9521 56.2023 0
      vertex -62.3011 55.68 0.6
    endloop
  endfacet
  facet normal -0.83147 0.55557 0
    outer loop
      vertex -62.3011 55.68 0.6
      vertex -61.9521 56.2023 0
      vertex -62.3011 55.68 0
    endloop
  endfacet
  facet normal -0.872496 0.488621 0
    outer loop
      vertex -62.3011 55.68 0.6
      vertex -62.3011 55.68 0
      vertex -62.6081 55.1319 0.6
    endloop
  endfacet
  facet normal -0.872496 0.488621 0
    outer loop
      vertex -62.6081 55.1319 0.6
      vertex -62.3011 55.68 0
      vertex -62.6081 55.1319 0
    endloop
  endfacet
  facet normal -0.908143 0.418659 0
    outer loop
      vertex -62.6081 55.1319 0.6
      vertex -62.6081 55.1319 0
      vertex -62.871 54.5615 0.6
    endloop
  endfacet
  facet normal -0.908143 0.418659 0
    outer loop
      vertex -62.871 54.5615 0.6
      vertex -62.6081 55.1319 0
      vertex -62.871 54.5615 0
    endloop
  endfacet
  facet normal -0.938191 0.346117 0
    outer loop
      vertex -62.871 54.5615 0.6
      vertex -62.871 54.5615 0
      vertex -63.0885 53.9721 0.6
    endloop
  endfacet
  facet normal -0.938191 0.346117 0
    outer loop
      vertex -63.0885 53.9721 0.6
      vertex -62.871 54.5615 0
      vertex -63.0885 53.9721 0
    endloop
  endfacet
  facet normal -0.962455 0.27144 0
    outer loop
      vertex -63.0885 53.9721 0.6
      vertex -63.0885 53.9721 0
      vertex -63.259 53.3676 0.6
    endloop
  endfacet
  facet normal -0.962455 0.27144 0
    outer loop
      vertex -63.259 53.3676 0.6
      vertex -63.0885 53.9721 0
      vertex -63.259 53.3676 0
    endloop
  endfacet
  facet normal -0.980785 0.195091 0
    outer loop
      vertex -63.259 53.3676 0.6
      vertex -63.259 53.3676 0
      vertex -63.3815 52.7515 0.6
    endloop
  endfacet
  facet normal -0.980785 0.195091 0
    outer loop
      vertex -63.3815 52.7515 0.6
      vertex -63.259 53.3676 0
      vertex -63.3815 52.7515 0
    endloop
  endfacet
  facet normal -0.993068 0.117537 0
    outer loop
      vertex -63.3815 52.7515 0.6
      vertex -63.3815 52.7515 0
      vertex -63.4553 52.1277 0.6
    endloop
  endfacet
  facet normal -0.993068 0.117537 0
    outer loop
      vertex -63.4553 52.1277 0.6
      vertex -63.3815 52.7515 0
      vertex -63.4553 52.1277 0
    endloop
  endfacet
  facet normal 0.866025 -0.5 0
    outer loop
      vertex -59.405 -10.8979 0
      vertex -59.405 -10.8979 5.8
      vertex -60.33 -12.5 5.8
    endloop
  endfacet
  facet normal 0.866025 -0.5 0
    outer loop
      vertex -60.33 -12.5 0
      vertex -59.405 -10.8979 0
      vertex -60.33 -12.5 5.8
    endloop
  endfacet
  facet normal 0.866025 0.5 0
    outer loop
      vertex -60.33 -12.5 5.8
      vertex -59.405 -14.1021 5.8
      vertex -59.405 -14.1021 0
    endloop
  endfacet
  facet normal 0.866025 0.5 0
    outer loop
      vertex -60.33 -12.5 0
      vertex -60.33 -12.5 5.8
      vertex -59.405 -14.1021 0
    endloop
  endfacet
  facet normal 0 -1 0
    outer loop
      vertex -57.555 -10.8979 0
      vertex -57.555 -10.8979 5.8
      vertex -59.405 -10.8979 5.8
    endloop
  endfacet
  facet normal 0 -1 0
    outer loop
      vertex -59.405 -10.8979 0
      vertex -57.555 -10.8979 0
      vertex -59.405 -10.8979 5.8
    endloop
  endfacet
  facet normal -0.866025 -0.5 0
    outer loop
      vertex -56.63 -12.5 5.8
      vertex -57.555 -10.8979 5.8
      vertex -56.63 -12.5 0
    endloop
  endfacet
  facet normal -0.866025 -0.5 0
    outer loop
      vertex -56.63 -12.5 0
      vertex -57.555 -10.8979 5.8
      vertex -57.555 -10.8979 0
    endloop
  endfacet
  facet normal -0.866025 0.5 0
    outer loop
      vertex -56.63 -12.5 5.8
      vertex -56.63 -12.5 0
      vertex -57.555 -14.1021 5.8
    endloop
  endfacet
  facet normal -0.866025 0.5 0
    outer loop
      vertex -57.555 -14.1021 5.8
      vertex -56.63 -12.5 0
      vertex -57.555 -14.1021 0
    endloop
  endfacet
  facet normal 0 1 0
    outer loop
      vertex -57.555 -14.1021 5.8
      vertex -57.555 -14.1021 0
      vertex -59.405 -14.1021 5.8
    endloop
  endfacet
  facet normal 0 1 0
    outer loop
      vertex -59.405 -14.1021 5.8
      vertex -57.555 -14.1021 0
      vertex -59.405 -14.1021 0
    endloop
  endfacet
  facet normal 0.866025 0.5 0
    outer loop
      vertex -60.33 52.5 3.8
      vertex -59.405 50.8979 3.8
      vertex -59.405 50.8979 0
    endloop
  endfacet
  facet normal 0.866025 0.5 0
    outer loop
      vertex -60.33 52.5 0
      vertex -60.33 52.5 3.8
      vertex -59.405 50.8979 0
    endloop
  endfacet
  facet normal 0.866025 -0.5 0
    outer loop
      vertex -59.405 54.1021 0
      vertex -59.405 54.1021 3.8
      vertex -60.33 52.5 3.8
    endloop
  endfacet
  facet normal 0.866025 -0.5 0
    outer loop
      vertex -60.33 52.5 0
      vertex -59.405 54.1021 0
      vertex -60.33 52.5 3.8
    endloop
  endfacet
  facet normal 0 -1 0
    outer loop
      vertex -57.555 54.1021 0
      vertex -57.555 54.1021 3.8
      vertex -59.405 54.1021 3.8
    endloop
  endfacet
  facet normal 0 -1 0
    outer loop
      vertex -59.405 54.1021 0
      vertex -57.555 54.1021 0
      vertex -59.405 54.1021 3.8
    endloop
  endfacet
  facet normal -0.866025 -0.5 0
    outer loop
      vertex -56.63 52.5 3.8
      vertex -57.555 54.1021 3.8
      vertex -56.63 52.5 0
    endloop
  endfacet
  facet normal -0.866025 -0.5 0
    outer loop
      vertex -56.63 52.5 0
      vertex -57.555 54.1021 3.8
      vertex -57.555 54.1021 0
    endloop
  endfacet
  facet normal -0.866025 0.5 0
    outer loop
      vertex -56.63 52.5 3.8
      vertex -56.63 52.5 0
      vertex -57.555 50.8979 3.8
    endloop
  endfacet
  facet normal -0.866025 0.5 0
    outer loop
      vertex -57.555 50.8979 3.8
      vertex -56.63 52.5 0
      vertex -57.555 50.8979 0
    endloop
  endfacet
  facet normal 0 1 0
    outer loop
      vertex -57.555 50.8979 3.8
      vertex -57.555 50.8979 0
      vertex -59.405 50.8979 3.8
    endloop
  endfacet
  facet normal 0 1 0
    outer loop
      vertex -59.405 50.8979 3.8
      vertex -57.555 50.8979 0
      vertex -59.405 50.8979 0
    endloop
  endfacet
  facet normal 0.866025 -0.5 0
    outer loop
      vertex 57.245 -10.8979 0
      vertex 57.245 -10.8979 5.8
      vertex 56.32 -12.5 5.8
    endloop
  endfacet
  facet normal 0.866025 -0.5 0
    outer loop
      vertex 56.32 -12.5 0
      vertex 57.245 -10.8979 0
      vertex 56.32 -12.5 5.8
    endloop
  endfacet
  facet normal 0.866025 0.5 0
    outer loop
      vertex 56.32 -12.5 5.8
      vertex 57.245 -14.1021 5.8
      vertex 57.245 -14.1021 0
    endloop
  endfacet
  facet normal 0.866025 0.5 0
    outer loop
      vertex 56.32 -12.5 0
      vertex 56.32 -12.5 5.8
      vertex 57.245 -14.1021 0
    endloop
  endfacet
  facet normal 0 -1 0
    outer loop
      vertex 59.095 -10.8979 0
      vertex 59.095 -10.8979 5.8
      vertex 57.245 -10.8979 5.8
    endloop
  endfacet
  facet normal 0 -1 0
    outer loop
      vertex 57.245 -10.8979 0
      vertex 59.095 -10.8979 0
      vertex 57.245 -10.8979 5.8
    endloop
  endfacet
  facet normal -0.866025 -0.5 0
    outer loop
      vertex 60.02 -12.5 5.8
      vertex 59.095 -10.8979 5.8
      vertex 60.02 -12.5 0
    endloop
  endfacet
  facet normal -0.866025 -0.5 0
    outer loop
      vertex 60.02 -12.5 0
      vertex 59.095 -10.8979 5.8
      vertex 59.095 -10.8979 0
    endloop
  endfacet
  facet normal -0.866025 0.5 0
    outer loop
      vertex 60.02 -12.5 5.8
      vertex 60.02 -12.5 0
      vertex 59.095 -14.1021 5.8
    endloop
  endfacet
  facet normal -0.866025 0.5 0
    outer loop
      vertex 59.095 -14.1021 5.8
      vertex 60.02 -12.5 0
      vertex 59.095 -14.1021 0
    endloop
  endfacet
  facet normal 0 1 0
    outer loop
      vertex 59.095 -14.1021 5.8
      vertex 59.095 -14.1021 0
      vertex 57.245 -14.1021 5.8
    endloop
  endfacet
  facet normal 0 1 0
    outer loop
      vertex 57.245 -14.1021 5.8
      vertex 59.095 -14.1021 0
      vertex 57.245 -14.1021 0
    endloop
  endfacet
  facet normal 0.866025 0.5 0
    outer loop
      vertex 56.32 52.5 3.8
      vertex 57.245 50.8979 3.8
      vertex 57.245 50.8979 0
    endloop
  endfacet
  facet normal 0.866025 0.5 0
    outer loop
      vertex 56.32 52.5 0
      vertex 56.32 52.5 3.8
      vertex 57.245 50.8979 0
    endloop
  endfacet
  facet normal 0.866025 -0.5 0
    outer loop
      vertex 57.245 54.1021 0
      vertex 57.245 54.1021 3.8
      vertex 56.32 52.5 3.8
    endloop
  endfacet
  facet normal 0.866025 -0.5 0
    outer loop
      vertex 56.32 52.5 0
      vertex 57.245 54.1021 0
      vertex 56.32 52.5 3.8
    endloop
  endfacet
  facet normal 0 -1 0
    outer loop
      vertex 59.095 54.1021 0
      vertex 59.095 54.1021 3.8
      vertex 57.245 54.1021 3.8
    endloop
  endfacet
  facet normal 0 -1 0
    outer loop
      vertex 57.245 54.1021 0
      vertex 59.095 54.1021 0
      vertex 57.245 54.1021 3.8
    endloop
  endfacet
  facet normal -0.866025 -0.5 0
    outer loop
      vertex 60.02 52.5 3.8
      vertex 59.095 54.1021 3.8
      vertex 60.02 52.5 0
    endloop
  endfacet
  facet normal -0.866025 -0.5 0
    outer loop
      vertex 60.02 52.5 0
      vertex 59.095 54.1021 3.8
      vertex 59.095 54.1021 0
    endloop
  endfacet
  facet normal -0.866025 0.5 0
    outer loop
      vertex 60.02 52.5 3.8
      vertex 60.02 52.5 0
      vertex 59.095 50.8979 3.8
    endloop
  endfacet
  facet normal -0.866025 0.5 0
    outer loop
      vertex 59.095 50.8979 3.8
      vertex 60.02 52.5 0
      vertex 59.095 50.8979 0
    endloop
  endfacet
  facet normal 0 1 0
    outer loop
      vertex 59.095 50.8979 3.8
      vertex 59.095 50.8979 0
      vertex 57.245 50.8979 3.8
    endloop
  endfacet
  facet normal 0 1 0
    outer loop
      vertex 57.245 50.8979 3.8
      vertex 59.095 50.8979 0
      vertex 57.245 50.8979 0
    endloop
  endfacet
  facet normal -0.951057 0.309017 0
    outer loop
      vertex -61.48 -12.5 0.6
      vertex -61.48 -12.5 5.8
      vertex -60.9071 -10.7366 0.6
    endloop
  endfacet
  facet normal -0.951057 0.309017 0
    outer loop
      vertex -60.9071 -10.7366 0.6
      vertex -61.48 -12.5 5.8
      vertex -60.9071 -10.7366 5.8
    endloop
  endfacet
  facet normal -0.951057 -0.309017 0
    outer loop
      vertex -61.48 -12.5 0.6
      vertex -60.9071 -14.2634 0.6
      vertex -61.48 -12.5 5.8
    endloop
  endfacet
  facet normal -0.951057 -0.309017 0
    outer loop
      vertex -61.48 -12.5 5.8
      vertex -60.9071 -14.2634 0.6
      vertex -60.9071 -14.2634 5.8
    endloop
  endfacet
  facet normal -0.587785 -0.809017 0
    outer loop
      vertex -60.9071 -14.2634 5.8
      vertex -60.9071 -14.2634 0.6
      vertex -59.4071 -15.3532 0.6
    endloop
  endfacet
  facet normal -0.587785 -0.809017 0
    outer loop
      vertex -59.4071 -15.3532 5.8
      vertex -60.9071 -14.2634 5.8
      vertex -59.4071 -15.3532 0.6
    endloop
  endfacet
  facet normal 0 -1 0
    outer loop
      vertex -59.4071 -15.3532 5.8
      vertex -59.4071 -15.3532 0.6
      vertex -57.5529 -15.3532 0.6
    endloop
  endfacet
  facet normal 0 -1 0
    outer loop
      vertex -57.5529 -15.3532 5.8
      vertex -59.4071 -15.3532 5.8
      vertex -57.5529 -15.3532 0.6
    endloop
  endfacet
  facet normal 0.587785 -0.809017 0
    outer loop
      vertex -57.5529 -15.3532 5.8
      vertex -57.5529 -15.3532 0.6
      vertex -56.0529 -14.2634 0.6
    endloop
  endfacet
  facet normal 0.587785 -0.809017 0
    outer loop
      vertex -56.0529 -14.2634 5.8
      vertex -57.5529 -15.3532 5.8
      vertex -56.0529 -14.2634 0.6
    endloop
  endfacet
  facet normal 0.951057 -0.309017 0
    outer loop
      vertex -56.0529 -14.2634 5.8
      vertex -56.0529 -14.2634 0.6
      vertex -55.48 -12.5 0.6
    endloop
  endfacet
  facet normal 0.951057 -0.309017 0
    outer loop
      vertex -55.48 -12.5 5.8
      vertex -56.0529 -14.2634 5.8
      vertex -55.48 -12.5 0.6
    endloop
  endfacet
  facet normal 0.951057 0.309017 0
    outer loop
      vertex -55.48 -12.5 0.6
      vertex -56.0529 -10.7366 0.6
      vertex -56.0529 -10.7366 5.8
    endloop
  endfacet
  facet normal 0.951057 0.309017 0
    outer loop
      vertex -55.48 -12.5 5.8
      vertex -55.48 -12.5 0.6
      vertex -56.0529 -10.7366 5.8
    endloop
  endfacet
  facet normal 0.587785 0.809017 0
    outer loop
      vertex -57.5529 -9.64683 0.6
      vertex -57.5529 -9.64683 5.8
      vertex -56.0529 -10.7366 0.6
    endloop
  endfacet
  facet normal 0.587785 0.809017 0
    outer loop
      vertex -56.0529 -10.7366 0.6
      vertex -57.5529 -9.64683 5.8
      vertex -56.0529 -10.7366 5.8
    endloop
  endfacet
  facet normal 0 1 0
    outer loop
      vertex -59.4071 -9.64683 0.6
      vertex -59.4071 -9.64683 5.8
      vertex -57.5529 -9.64683 0.6
    endloop
  endfacet
  facet normal 0 1 0
    outer loop
      vertex -57.5529 -9.64683 0.6
      vertex -59.4071 -9.64683 5.8
      vertex -57.5529 -9.64683 5.8
    endloop
  endfacet
  facet normal -0.587785 0.809017 0
    outer loop
      vertex -60.9071 -10.7366 0.6
      vertex -60.9071 -10.7366 5.8
      vertex -59.4071 -9.64683 0.6
    endloop
  endfacet
  facet normal -0.587785 0.809017 0
    outer loop
      vertex -59.4071 -9.64683 0.6
      vertex -60.9071 -10.7366 5.8
      vertex -59.4071 -9.64683 5.8
    endloop
  endfacet
  facet normal -0.951057 0.309017 0
    outer loop
      vertex -61.48 52.5 0.6
      vertex -61.48 52.5 3.8
      vertex -60.9071 54.2634 0.6
    endloop
  endfacet
  facet normal -0.951057 0.309017 0
    outer loop
      vertex -60.9071 54.2634 0.6
      vertex -61.48 52.5 3.8
      vertex -60.9071 54.2634 3.8
    endloop
  endfacet
  facet normal -0.951057 -0.309017 0
    outer loop
      vertex -61.48 52.5 0.6
      vertex -60.9071 50.7366 0.6
      vertex -61.48 52.5 3.8
    endloop
  endfacet
  facet normal -0.951057 -0.309017 0
    outer loop
      vertex -61.48 52.5 3.8
      vertex -60.9071 50.7366 0.6
      vertex -60.9071 50.7366 3.8
    endloop
  endfacet
  facet normal -0.587785 -0.809017 0
    outer loop
      vertex -60.9071 50.7366 3.8
      vertex -60.9071 50.7366 0.6
      vertex -59.4071 49.6468 0.6
    endloop
  endfacet
  facet normal -0.587785 -0.809017 0
    outer loop
      vertex -59.4071 49.6468 3.8
      vertex -60.9071 50.7366 3.8
      vertex -59.4071 49.6468 0.6
    endloop
  endfacet
  facet normal 0 -1 0
    outer loop
      vertex -59.4071 49.6468 3.8
      vertex -59.4071 49.6468 0.6
      vertex -57.5529 49.6468 0.6
    endloop
  endfacet
  facet normal 0 -1 0
    outer loop
      vertex -57.5529 49.6468 3.8
      vertex -59.4071 49.6468 3.8
      vertex -57.5529 49.6468 0.6
    endloop
  endfacet
  facet normal 0.587785 -0.809017 0
    outer loop
      vertex -57.5529 49.6468 3.8
      vertex -57.5529 49.6468 0.6
      vertex -56.0529 50.7366 0.6
    endloop
  endfacet
  facet normal 0.587785 -0.809017 0
    outer loop
      vertex -56.0529 50.7366 3.8
      vertex -57.5529 49.6468 3.8
      vertex -56.0529 50.7366 0.6
    endloop
  endfacet
  facet normal 0.951057 -0.309017 0
    outer loop
      vertex -56.0529 50.7366 3.8
      vertex -56.0529 50.7366 0.6
      vertex -55.48 52.5 0.6
    endloop
  endfacet
  facet normal 0.951057 -0.309017 0
    outer loop
      vertex -55.48 52.5 3.8
      vertex -56.0529 50.7366 3.8
      vertex -55.48 52.5 0.6
    endloop
  endfacet
  facet normal 0.951057 0.309017 0
    outer loop
      vertex -55.48 52.5 0.6
      vertex -56.0529 54.2634 0.6
      vertex -56.0529 54.2634 3.8
    endloop
  endfacet
  facet normal 0.951057 0.309017 0
    outer loop
      vertex -55.48 52.5 3.8
      vertex -55.48 52.5 0.6
      vertex -56.0529 54.2634 3.8
    endloop
  endfacet
  facet normal 0.587785 0.809017 0
    outer loop
      vertex -57.5529 55.3532 0.6
      vertex -57.5529 55.3532 3.8
      vertex -56.0529 54.2634 0.6
    endloop
  endfacet
  facet normal 0.587785 0.809017 0
    outer loop
      vertex -56.0529 54.2634 0.6
      vertex -57.5529 55.3532 3.8
      vertex -56.0529 54.2634 3.8
    endloop
  endfacet
  facet normal 0 1 0
    outer loop
      vertex -59.4071 55.3532 0.6
      vertex -59.4071 55.3532 3.8
      vertex -57.5529 55.3532 0.6
    endloop
  endfacet
  facet normal 0 1 0
    outer loop
      vertex -57.5529 55.3532 0.6
      vertex -59.4071 55.3532 3.8
      vertex -57.5529 55.3532 3.8
    endloop
  endfacet
  facet normal -0.587785 0.809017 0
    outer loop
      vertex -60.9071 54.2634 0.6
      vertex -60.9071 54.2634 3.8
      vertex -59.4071 55.3532 0.6
    endloop
  endfacet
  facet normal -0.587785 0.809017 0
    outer loop
      vertex -59.4071 55.3532 0.6
      vertex -60.9071 54.2634 3.8
      vertex -59.4071 55.3532 3.8
    endloop
  endfacet
  facet normal -0.951057 0.309017 0
    outer loop
      vertex 55.17 -12.5 0.6
      vertex 55.17 -12.5 5.8
      vertex 55.7429 -10.7366 0.6
    endloop
  endfacet
  facet normal -0.951057 0.309017 0
    outer loop
      vertex 55.7429 -10.7366 0.6
      vertex 55.17 -12.5 5.8
      vertex 55.7429 -10.7366 5.8
    endloop
  endfacet
  facet normal -0.951057 -0.309017 0
    outer loop
      vertex 55.17 -12.5 0.6
      vertex 55.7429 -14.2634 0.6
      vertex 55.17 -12.5 5.8
    endloop
  endfacet
  facet normal -0.951057 -0.309017 0
    outer loop
      vertex 55.17 -12.5 5.8
      vertex 55.7429 -14.2634 0.6
      vertex 55.7429 -14.2634 5.8
    endloop
  endfacet
  facet normal -0.587785 -0.809017 0
    outer loop
      vertex 55.7429 -14.2634 5.8
      vertex 55.7429 -14.2634 0.6
      vertex 57.2429 -15.3532 0.6
    endloop
  endfacet
  facet normal -0.587785 -0.809017 0
    outer loop
      vertex 57.2429 -15.3532 5.8
      vertex 55.7429 -14.2634 5.8
      vertex 57.2429 -15.3532 0.6
    endloop
  endfacet
  facet normal 0 -1 0
    outer loop
      vertex 57.2429 -15.3532 5.8
      vertex 57.2429 -15.3532 0.6
      vertex 59.0971 -15.3532 0.6
    endloop
  endfacet
  facet normal 0 -1 0
    outer loop
      vertex 59.0971 -15.3532 5.8
      vertex 57.2429 -15.3532 5.8
      vertex 59.0971 -15.3532 0.6
    endloop
  endfacet
  facet normal 0.587785 -0.809017 0
    outer loop
      vertex 59.0971 -15.3532 5.8
      vertex 59.0971 -15.3532 0.6
      vertex 60.5971 -14.2634 0.6
    endloop
  endfacet
  facet normal 0.587785 -0.809017 0
    outer loop
      vertex 60.5971 -14.2634 5.8
      vertex 59.0971 -15.3532 5.8
      vertex 60.5971 -14.2634 0.6
    endloop
  endfacet
  facet normal 0.951057 -0.309017 0
    outer loop
      vertex 60.5971 -14.2634 5.8
      vertex 60.5971 -14.2634 0.6
      vertex 61.17 -12.5 0.6
    endloop
  endfacet
  facet normal 0.951057 -0.309017 0
    outer loop
      vertex 61.17 -12.5 5.8
      vertex 60.5971 -14.2634 5.8
      vertex 61.17 -12.5 0.6
    endloop
  endfacet
  facet normal 0.951057 0.309017 0
    outer loop
      vertex 61.17 -12.5 0.6
      vertex 60.5971 -10.7366 0.6
      vertex 60.5971 -10.7366 5.8
    endloop
  endfacet
  facet normal 0.951057 0.309017 0
    outer loop
      vertex 61.17 -12.5 5.8
      vertex 61.17 -12.5 0.6
      vertex 60.5971 -10.7366 5.8
    endloop
  endfacet
  facet normal 0.587785 0.809017 0
    outer loop
      vertex 59.0971 -9.64683 0.6
      vertex 59.0971 -9.64683 5.8
      vertex 60.5971 -10.7366 0.6
    endloop
  endfacet
  facet normal 0.587785 0.809017 0
    outer loop
      vertex 60.5971 -10.7366 0.6
      vertex 59.0971 -9.64683 5.8
      vertex 60.5971 -10.7366 5.8
    endloop
  endfacet
  facet normal 0 1 0
    outer loop
      vertex 57.2429 -9.64683 0.6
      vertex 57.2429 -9.64683 5.8
      vertex 59.0971 -9.64683 0.6
    endloop
  endfacet
  facet normal 0 1 0
    outer loop
      vertex 59.0971 -9.64683 0.6
      vertex 57.2429 -9.64683 5.8
      vertex 59.0971 -9.64683 5.8
    endloop
  endfacet
  facet normal -0.587785 0.809017 0
    outer loop
      vertex 55.7429 -10.7366 0.6
      vertex 55.7429 -10.7366 5.8
      vertex 57.2429 -9.64683 0.6
    endloop
  endfacet
  facet normal -0.587785 0.809017 0
    outer loop
      vertex 57.2429 -9.64683 0.6
      vertex 55.7429 -10.7366 5.8
      vertex 57.2429 -9.64683 5.8
    endloop
  endfacet
  facet normal -0.951057 0.309017 0
    outer loop
      vertex 55.17 52.5 0.6
      vertex 55.17 52.5 3.8
      vertex 55.7429 54.2634 0.6
    endloop
  endfacet
  facet normal -0.951057 0.309017 0
    outer loop
      vertex 55.7429 54.2634 0.6
      vertex 55.17 52.5 3.8
      vertex 55.7429 54.2634 3.8
    endloop
  endfacet
  facet normal -0.951057 -0.309017 0
    outer loop
      vertex 55.17 52.5 0.6
      vertex 55.7429 50.7366 0.6
      vertex 55.17 52.5 3.8
    endloop
  endfacet
  facet normal -0.951057 -0.309017 0
    outer loop
      vertex 55.17 52.5 3.8
      vertex 55.7429 50.7366 0.6
      vertex 55.7429 50.7366 3.8
    endloop
  endfacet
  facet normal -0.587785 -0.809017 0
    outer loop
      vertex 55.7429 50.7366 3.8
      vertex 55.7429 50.7366 0.6
      vertex 57.2429 49.6468 0.6
    endloop
  endfacet
  facet normal -0.587785 -0.809017 0
    outer loop
      vertex 57.2429 49.6468 3.8
      vertex 55.7429 50.7366 3.8
      vertex 57.2429 49.6468 0.6
    endloop
  endfacet
  facet normal 0 -1 0
    outer loop
      vertex 57.2429 49.6468 3.8
      vertex 57.2429 49.6468 0.6
      vertex 59.0971 49.6468 0.6
    endloop
  endfacet
  facet normal 0 -1 0
    outer loop
      vertex 59.0971 49.6468 3.8
      vertex 57.2429 49.6468 3.8
      vertex 59.0971 49.6468 0.6
    endloop
  endfacet
  facet normal 0.587785 -0.809017 0
    outer loop
      vertex 59.0971 49.6468 3.8
      vertex 59.0971 49.6468 0.6
      vertex 60.5971 50.7366 0.6
    endloop
  endfacet
  facet normal 0.587785 -0.809017 0
    outer loop
      vertex 60.5971 50.7366 3.8
      vertex 59.0971 49.6468 3.8
      vertex 60.5971 50.7366 0.6
    endloop
  endfacet
  facet normal 0.951057 -0.309017 0
    outer loop
      vertex 60.5971 50.7366 3.8
      vertex 60.5971 50.7366 0.6
      vertex 61.17 52.5 0.6
    endloop
  endfacet
  facet normal 0.951057 -0.309017 0
    outer loop
      vertex 61.17 52.5 3.8
      vertex 60.5971 50.7366 3.8
      vertex 61.17 52.5 0.6
    endloop
  endfacet
  facet normal 0.951057 0.309017 0
    outer loop
      vertex 61.17 52.5 0.6
      vertex 60.5971 54.2634 0.6
      vertex 60.5971 54.2634 3.8
    endloop
  endfacet
  facet normal 0.951057 0.309017 0
    outer loop
      vertex 61.17 52.5 3.8
      vertex 61.17 52.5 0.6
      vertex 60.5971 54.2634 3.8
    endloop
  endfacet
  facet normal 0.587785 0.809017 0
    outer loop
      vertex 59.0971 55.3532 0.6
      vertex 59.0971 55.3532 3.8
      vertex 60.5971 54.2634 0.6
    endloop
  endfacet
  facet normal 0.587785 0.809017 0
    outer loop
      vertex 60.5971 54.2634 0.6
      vertex 59.0971 55.3532 3.8
      vertex 60.5971 54.2634 3.8
    endloop
  endfacet
  facet normal 0 1 0
    outer loop
      vertex 57.2429 55.3532 0.6
      vertex 57.2429 55.3532 3.8
      vertex 59.0971 55.3532 0.6
    endloop
  endfacet
  facet normal 0 1 0
    outer loop
      vertex 59.0971 55.3532 0.6
      vertex 57.2429 55.3532 3.8
      vertex 59.0971 55.3532 3.8
    endloop
  endfacet
  facet normal -0.587785 0.809017 0
    outer loop
      vertex 55.7429 54.2634 0.6
      vertex 55.7429 54.2634 3.8
      vertex 57.2429 55.3532 0.6
    endloop
  endfacet
  facet normal -0.587785 0.809017 0
    outer loop
      vertex 57.2429 55.3532 0.6
      vertex 55.7429 54.2634 3.8
      vertex 57.2429 55.3532 3.8
    endloop
  endfacet
  facet normal 0 0 1
    outer loop
      vertex -60.9071 -10.7366 5.8
      vertex -61.48 -12.5 5.8
      vertex -60.9071 -14.2634 5.8
    endloop
  endfacet
  facet normal 0 0 1
    outer loop
      vertex -60.33 -12.5 5.8
      vertex -60.9071 -10.7366 5.8
      vertex -59.4071 -15.3532 5.8
    endloop
  endfacet
  facet normal 0 0 1
    outer loop
      vertex -59.4071 -15.3532 5.8
      vertex -60.9071 -10.7366 5.8
      vertex -60.9071 -14.2634 5.8
    endloop
  endfacet
  facet normal 0 0 1
    outer loop
      vertex -57.5529 -9.64683 5.8
      vertex -60.9071 -10.7366 5.8
      vertex -56.0529 -10.7366 5.8
    endloop
  endfacet
  facet normal 0 0 1
    outer loop
      vertex -59.4071 -9.64683 5.8
      vertex -60.9071 -10.7366 5.8
      vertex -57.5529 -9.64683 5.8
    endloop
  endfacet
  facet normal 0 0 1
    outer loop
      vertex -57.5529 -15.3532 5.8
      vertex -59.405 -14.1021 5.8
      vertex -59.4071 -15.3532 5.8
    endloop
  endfacet
  facet normal 0 0 1
    outer loop
      vertex -59.405 -14.1021 5.8
      vertex -60.33 -12.5 5.8
      vertex -59.4071 -15.3532 5.8
    endloop
  endfacet
  facet normal 0 0 1
    outer loop
      vertex -56.63 -12.5 5.8
      vertex -57.555 -14.1021 5.8
      vertex -56.0529 -14.2634 5.8
    endloop
  endfacet
  facet normal 0 0 1
    outer loop
      vertex -56.0529 -10.7366 5.8
      vertex -60.9071 -10.7366 5.8
      vertex -59.405 -10.8979 5.8
    endloop
  endfacet
  facet normal 0 0 1
    outer loop
      vertex -56.0529 -10.7366 5.8
      vertex -57.555 -10.8979 5.8
      vertex -55.48 -12.5 5.8
    endloop
  endfacet
  facet normal 0 0 1
    outer loop
      vertex -56.0529 -10.7366 5.8
      vertex -59.405 -10.8979 5.8
      vertex -57.555 -10.8979 5.8
    endloop
  endfacet
  facet normal 0 0 1
    outer loop
      vertex -55.48 -12.5 5.8
      vertex -56.63 -12.5 5.8
      vertex -56.0529 -14.2634 5.8
    endloop
  endfacet
  facet normal 0 0 1
    outer loop
      vertex -57.555 -10.8979 5.8
      vertex -56.63 -12.5 5.8
      vertex -55.48 -12.5 5.8
    endloop
  endfacet
  facet normal 0 0 1
    outer loop
      vertex -56.0529 -14.2634 5.8
      vertex -57.555 -14.1021 5.8
      vertex -57.5529 -15.3532 5.8
    endloop
  endfacet
  facet normal 0 0 1
    outer loop
      vertex -57.555 -14.1021 5.8
      vertex -59.405 -14.1021 5.8
      vertex -57.5529 -15.3532 5.8
    endloop
  endfacet
  facet normal 0 0 1
    outer loop
      vertex -60.33 -12.5 5.8
      vertex -59.405 -10.8979 5.8
      vertex -60.9071 -10.7366 5.8
    endloop
  endfacet
  facet normal 0 0 1
    outer loop
      vertex -60.9071 54.2634 3.8
      vertex -61.48 52.5 3.8
      vertex -60.9071 50.7366 3.8
    endloop
  endfacet
  facet normal 0 0 1
    outer loop
      vertex -60.33 52.5 3.8
      vertex -60.9071 54.2634 3.8
      vertex -59.4071 49.6468 3.8
    endloop
  endfacet
  facet normal 0 0 1
    outer loop
      vertex -59.4071 49.6468 3.8
      vertex -60.9071 54.2634 3.8
      vertex -60.9071 50.7366 3.8
    endloop
  endfacet
  facet normal 0 0 1
    outer loop
      vertex -57.5529 55.3532 3.8
      vertex -60.9071 54.2634 3.8
      vertex -56.0529 54.2634 3.8
    endloop
  endfacet
  facet normal 0 0 1
    outer loop
      vertex -59.4071 55.3532 3.8
      vertex -60.9071 54.2634 3.8
      vertex -57.5529 55.3532 3.8
    endloop
  endfacet
  facet normal 0 0 1
    outer loop
      vertex -57.5529 49.6468 3.8
      vertex -59.405 50.8979 3.8
      vertex -59.4071 49.6468 3.8
    endloop
  endfacet
  facet normal 0 0 1
    outer loop
      vertex -59.405 50.8979 3.8
      vertex -60.33 52.5 3.8
      vertex -59.4071 49.6468 3.8
    endloop
  endfacet
  facet normal 0 0 1
    outer loop
      vertex -56.63 52.5 3.8
      vertex -57.555 50.8979 3.8
      vertex -56.0529 50.7366 3.8
    endloop
  endfacet
  facet normal 0 0 1
    outer loop
      vertex -56.0529 54.2634 3.8
      vertex -60.9071 54.2634 3.8
      vertex -59.405 54.1021 3.8
    endloop
  endfacet
  facet normal 0 0 1
    outer loop
      vertex -56.0529 54.2634 3.8
      vertex -57.555 54.1021 3.8
      vertex -55.48 52.5 3.8
    endloop
  endfacet
  facet normal 0 0 1
    outer loop
      vertex -56.0529 54.2634 3.8
      vertex -59.405 54.1021 3.8
      vertex -57.555 54.1021 3.8
    endloop
  endfacet
  facet normal 0 0 1
    outer loop
      vertex -55.48 52.5 3.8
      vertex -56.63 52.5 3.8
      vertex -56.0529 50.7366 3.8
    endloop
  endfacet
  facet normal 0 0 1
    outer loop
      vertex -57.555 54.1021 3.8
      vertex -56.63 52.5 3.8
      vertex -55.48 52.5 3.8
    endloop
  endfacet
  facet normal 0 0 1
    outer loop
      vertex -56.0529 50.7366 3.8
      vertex -57.555 50.8979 3.8
      vertex -57.5529 49.6468 3.8
    endloop
  endfacet
  facet normal 0 0 1
    outer loop
      vertex -57.555 50.8979 3.8
      vertex -59.405 50.8979 3.8
      vertex -57.5529 49.6468 3.8
    endloop
  endfacet
  facet normal 0 0 1
    outer loop
      vertex -60.33 52.5 3.8
      vertex -59.405 54.1021 3.8
      vertex -60.9071 54.2634 3.8
    endloop
  endfacet
  facet normal 0 0 1
    outer loop
      vertex 55.7429 -10.7366 5.8
      vertex 55.17 -12.5 5.8
      vertex 55.7429 -14.2634 5.8
    endloop
  endfacet
  facet normal 0 0 1
    outer loop
      vertex 56.32 -12.5 5.8
      vertex 55.7429 -10.7366 5.8
      vertex 57.2429 -15.3532 5.8
    endloop
  endfacet
  facet normal 0 0 1
    outer loop
      vertex 57.2429 -15.3532 5.8
      vertex 55.7429 -10.7366 5.8
      vertex 55.7429 -14.2634 5.8
    endloop
  endfacet
  facet normal 0 0 1
    outer loop
      vertex 59.0971 -9.64683 5.8
      vertex 55.7429 -10.7366 5.8
      vertex 60.5971 -10.7366 5.8
    endloop
  endfacet
  facet normal 0 0 1
    outer loop
      vertex 57.2429 -9.64683 5.8
      vertex 55.7429 -10.7366 5.8
      vertex 59.0971 -9.64683 5.8
    endloop
  endfacet
  facet normal 0 0 1
    outer loop
      vertex 59.0971 -15.3532 5.8
      vertex 57.245 -14.1021 5.8
      vertex 57.2429 -15.3532 5.8
    endloop
  endfacet
  facet normal 0 0 1
    outer loop
      vertex 57.245 -14.1021 5.8
      vertex 56.32 -12.5 5.8
      vertex 57.2429 -15.3532 5.8
    endloop
  endfacet
  facet normal 0 0 1
    outer loop
      vertex 60.02 -12.5 5.8
      vertex 59.095 -14.1021 5.8
      vertex 60.5971 -14.2634 5.8
    endloop
  endfacet
  facet normal 0 0 1
    outer loop
      vertex 60.5971 -10.7366 5.8
      vertex 55.7429 -10.7366 5.8
      vertex 57.245 -10.8979 5.8
    endloop
  endfacet
  facet normal 0 0 1
    outer loop
      vertex 60.5971 -10.7366 5.8
      vertex 59.095 -10.8979 5.8
      vertex 61.17 -12.5 5.8
    endloop
  endfacet
  facet normal 0 0 1
    outer loop
      vertex 60.5971 -10.7366 5.8
      vertex 57.245 -10.8979 5.8
      vertex 59.095 -10.8979 5.8
    endloop
  endfacet
  facet normal 0 0 1
    outer loop
      vertex 61.17 -12.5 5.8
      vertex 60.02 -12.5 5.8
      vertex 60.5971 -14.2634 5.8
    endloop
  endfacet
  facet normal 0 0 1
    outer loop
      vertex 59.095 -10.8979 5.8
      vertex 60.02 -12.5 5.8
      vertex 61.17 -12.5 5.8
    endloop
  endfacet
  facet normal 0 0 1
    outer loop
      vertex 60.5971 -14.2634 5.8
      vertex 59.095 -14.1021 5.8
      vertex 59.0971 -15.3532 5.8
    endloop
  endfacet
  facet normal 0 0 1
    outer loop
      vertex 59.095 -14.1021 5.8
      vertex 57.245 -14.1021 5.8
      vertex 59.0971 -15.3532 5.8
    endloop
  endfacet
  facet normal 0 0 1
    outer loop
      vertex 56.32 -12.5 5.8
      vertex 57.245 -10.8979 5.8
      vertex 55.7429 -10.7366 5.8
    endloop
  endfacet
  facet normal 0 0 1
    outer loop
      vertex 55.7429 54.2634 3.8
      vertex 55.17 52.5 3.8
      vertex 55.7429 50.7366 3.8
    endloop
  endfacet
  facet normal 0 0 1
    outer loop
      vertex 56.32 52.5 3.8
      vertex 55.7429 54.2634 3.8
      vertex 57.2429 49.6468 3.8
    endloop
  endfacet
  facet normal 0 0 1
    outer loop
      vertex 57.2429 49.6468 3.8
      vertex 55.7429 54.2634 3.8
      vertex 55.7429 50.7366 3.8
    endloop
  endfacet
  facet normal 0 0 1
    outer loop
      vertex 59.0971 55.3532 3.8
      vertex 55.7429 54.2634 3.8
      vertex 60.5971 54.2634 3.8
    endloop
  endfacet
  facet normal 0 0 1
    outer loop
      vertex 57.2429 55.3532 3.8
      vertex 55.7429 54.2634 3.8
      vertex 59.0971 55.3532 3.8
    endloop
  endfacet
  facet normal 0 0 1
    outer loop
      vertex 59.0971 49.6468 3.8
      vertex 57.245 50.8979 3.8
      vertex 57.2429 49.6468 3.8
    endloop
  endfacet
  facet normal 0 0 1
    outer loop
      vertex 57.245 50.8979 3.8
      vertex 56.32 52.5 3.8
      vertex 57.2429 49.6468 3.8
    endloop
  endfacet
  facet normal 0 0 1
    outer loop
      vertex 60.02 52.5 3.8
      vertex 59.095 50.8979 3.8
      vertex 60.5971 50.7366 3.8
    endloop
  endfacet
  facet normal 0 0 1
    outer loop
      vertex 60.5971 54.2634 3.8
      vertex 55.7429 54.2634 3.8
      vertex 57.245 54.1021 3.8
    endloop
  endfacet
  facet normal 0 0 1
    outer loop
      vertex 60.5971 54.2634 3.8
      vertex 59.095 54.1021 3.8
      vertex 61.17 52.5 3.8
    endloop
  endfacet
  facet normal 0 0 1
    outer loop
      vertex 60.5971 54.2634 3.8
      vertex 57.245 54.1021 3.8
      vertex 59.095 54.1021 3.8
    endloop
  endfacet
  facet normal 0 0 1
    outer loop
      vertex 61.17 52.5 3.8
      vertex 60.02 52.5 3.8
      vertex 60.5971 50.7366 3.8
    endloop
  endfacet
  facet normal 0 0 1
    outer loop
      vertex 59.095 54.1021 3.8
      vertex 60.02 52.5 3.8
      vertex 61.17 52.5 3.8
    endloop
  endfacet
  facet normal 0 0 1
    outer loop
      vertex 60.5971 50.7366 3.8
      vertex 59.095 50.8979 3.8
      vertex 59.0971 49.6468 3.8
    endloop
  endfacet
  facet normal 0 0 1
    outer loop
      vertex 59.095 50.8979 3.8
      vertex 57.245 50.8979 3.8
      vertex 59.0971 49.6468 3.8
    endloop
  endfacet
  facet normal 0 0 1
    outer loop
      vertex 56.32 52.5 3.8
      vertex 57.245 54.1021 3.8
      vertex 55.7429 54.2634 3.8
    endloop
  endfacet
endsolid OpenSCAD_Model
