999
DXF created by Inkscape
  0
SECTION
  2
HEADER
  9
$ACADVER
  1
AC1014
  9
$HANDSEED
  5
FFFF
  9
$MEASUREMENT
 70
     1
  0
ENDSEC
  0
SECTION
  2
TABLES
  0
TABLE
  2
VPORT
  5
8
330
0
100
AcDbSymbolTable
 70
     4
  0
VPORT
  5
2E
330
8
100
AcDbSymbolTableRecord
100
AcDbViewportTableRecord
  2
*ACTIVE
 70
     0
 10
0.0
 20
0.0
 11
1.0
 21
1.0
 12
210.0
 22
148.5
 13
0.0
 23
0.0
 14
10.0
 24
10.0
 15
10.0
 25
10.0
 16
0.0
 26
0.0
 36
1.0
 17
0.0
 27
0.0
 37
0.0
 40
341.0
 41
1.24
 42
50.0
 43
0.0
 44
0.0
 50
0.0
 51
0.0
 71
     0
 72
   100
 73
     1
 74
     3
 75
     0
 76
     0
 77
     0
 78
     0
  0
ENDTAB
  0
TABLE
  2
LTYPE
  5
5
330
0
100
AcDbSymbolTable
 70
     1
  0
LTYPE
  5
14
330
5
100
AcDbSymbolTableRecord
100
AcDbLinetypeTableRecord
  2
BYBLOCK
 70
     0
  3

 72
    65
 73
     0
 40
0.0
  0
LTYPE
  5
15
330
5
100
AcDbSymbolTableRecord
100
AcDbLinetypeTableRecord
  2
BYLAYER
 70
     0
  3

 72
    65
 73
     0
 40
0.0
  0
LTYPE
  5
16
330
5
100
AcDbSymbolTableRecord
100
AcDbLinetypeTableRecord
  2
CONTINUOUS
 70
     0
  3
Solid line
 72
    65
 73
     0
 40
0.0
  0
ENDTAB
  0
TABLE
  2
LAYER
  5
2
100
AcDbSymbolTable
 70
2
  0
LAYER
  5
50
100
AcDbSymbolTableRecord
100
AcDbLayerTableRecord
  2
0
 70
0
  6
CONTINUOUS
  0
LAYER
  5
51
100
AcDbSymbolTableRecord
100
AcDbLayerTableRecord
  2
Livello_1
 70
0
  6
CONTINUOUS
  0
ENDTAB
  0
TABLE
  2
STYLE
  5
3
330
0
100
AcDbSymbolTable
 70
     1
  0
STYLE
  5
11
330
3
100
AcDbSymbolTableRecord
100
AcDbTextStyleTableRecord
  2
STANDARD
 70
     0
 40
0.0
 41
1.0
 50
0.0
 71
     0
 42
2.5
  3
txt
  4

  0
ENDTAB
  0
TABLE
  2
VIEW
  5
6
330
0
100
AcDbSymbolTable
 70
     0
  0
ENDTAB
  0
TABLE
  2
UCS
  5
7
330
0
100
AcDbSymbolTable
 70
     0
  0
ENDTAB
  0
TABLE
  2
APPID
  5
9
330
0
100
AcDbSymbolTable
 70
     2
  0
APPID
  5
12
330
9
100
AcDbSymbolTableRecord
100
AcDbRegAppTableRecord
  2
ACAD
 70
     0
  0
ENDTAB
  0
TABLE
  2
DIMSTYLE
  5
A
330
0
100
AcDbSymbolTable
 70
     1
  0
DIMSTYLE
105
27
330
A
100
AcDbSymbolTableRecord
100
AcDbDimStyleTableRecord
  2
ISO-25
 70
     0
  3

  4

  5

  6

  7

 40
1.0
 41
2.5
 42
0.625
 43
3.75
 44
1.25
 45
0.0
 46
0.0
 47
0.0
 48
0.0
140
2.5
141
2.5
142
0.0
143
0.03937007874016
144
1.0
145
0.0
146
1.0
147
0.625
 71
     0
 72
     0
 73
     0
 74
     0
 75
     0
 76
     0
 77
     1
 78
     8
170
     0
171
     3
172
     1
173
     0
174
     0
175
     0
176
     0
177
     0
178
     0
270
     2
271
     2
272
     2
273
     2
274
     3
340
11
275
     0
280
     0
281
     0
282
     0
283
     0
284
     8
285
     0
286
     0
287
     3
288
     0
  0
ENDTAB
  0
TABLE
  2
BLOCK_RECORD
  5
1
330
0
100
AcDbSymbolTable
 70
     1
  0
BLOCK_RECORD
  5
1F
330
1
100
AcDbSymbolTableRecord
100
AcDbBlockTableRecord
  2
*MODEL_SPACE
  0
BLOCK_RECORD
  5
1B
330
1
100
AcDbSymbolTableRecord
100
AcDbBlockTableRecord
  2
*PAPER_SPACE
  0
ENDTAB
  0
ENDSEC
  0
SECTION
  2
BLOCKS
  0
BLOCK
  5
20
330
1F
100
AcDbEntity
  8
0
100
AcDbBlockBegin
  2
*MODEL_SPACE
 70
     0
 10
0.0
 20
0.0
 30
0.0
  3
*MODEL_SPACE
  1

  0
ENDBLK
  5
21
330
1F
100
AcDbEntity
  8
0
100
AcDbBlockEnd
  0
BLOCK
  5
1C
330
1B
100
AcDbEntity
 67
     1
  8
0
100
AcDbBlockBegin
  2
*PAPER_SPACE
  1

  0
ENDBLK
  5
1D
330
1B
100
AcDbEntity
 67
     1
  8
0
100
AcDbBlockEnd
  0
ENDSEC
  0
SECTION
  2
ENTITIES
  0
LWPOLYLINE
  5
100
100
AcDbEntity
  8
Livello_1
 62
7
100
AcDbPolyline
 90
49
 70
0
 10
57.734287
 20
194.183701
 30
0.0
 10
57.158263
 20
193.050952
 30
0.0
 10
55.430208
 20
192.673369
 30
0.0
 10
53.462369
 20
192.673369
 30
0.0
 10
51.494532
 20
192.673369
 30
0.0
 10
51.172070
 20
192.782236
 30
0.0
 10
51.064583
 20
193.108830
 30
0.0
 10
51.172070
 20
193.513974
 30
0.0
 10
51.494532
 20
193.649023
 30
0.0
 10
53.465126
 20
193.649023
 30
0.0
 10
55.435720
 20
193.649023
 30
0.0
 10
56.254272
 20
193.782689
 30
0.0
 10
56.527127
 20
194.183701
 30
0.0
 10
56.527127
 20
194.282919
 30
0.0
 10
56.527127
 20
194.382137
 30
0.0
 10
56.279076
 20
194.741804
 30
0.0
 10
55.534938
 20
194.861695
 30
0.0
 10
54.589604
 20
194.861695
 30
0.0
 10
53.644269
 20
194.861695
 30
0.0
 10
51.688833
 20
195.225496
 30
0.0
 10
51.037022
 20
196.316903
 30
0.0
 10
51.037022
 20
196.460221
 30
0.0
 10
51.037022
 20
196.603537
 30
0.0
 10
51.364995
 20
197.394527
 30
0.0
 10
52.348915
 20
197.838259
 30
0.0
 10
52.674819
 20
197.891308
 30
0.0
 10
53.123372
 20
197.929208
 30
0.0
 10
53.698702
 20
197.951927
 30
0.0
 10
54.404949
 20
197.959518
 30
0.0
 10
54.731539
 20
197.821709
 30
0.0
 10
54.840409
 20
197.408305
 30
0.0
 10
54.731539
 20
197.085840
 30
0.0
 10
54.404949
 20
196.978356
 30
0.0
 10
53.986024
 20
196.978356
 30
0.0
 10
53.567101
 20
196.978356
 30
0.0
 10
53.042066
 20
196.974207
 30
0.0
 10
52.778863
 20
196.961818
 30
0.0
 10
52.344780
 20
196.833655
 30
0.0
 10
52.200088
 20
196.603528
 30
0.0
 10
52.200088
 20
196.465725
 30
0.0
 10
52.200088
 20
196.327918
 30
0.0
 10
52.562509
 20
195.972383
 30
0.0
 10
53.649784
 20
195.853875
 30
0.0
 10
54.614408
 20
195.853875
 30
0.0
 10
55.579035
 20
195.853875
 30
0.0
 10
57.195472
 20
195.496960
 30
0.0
 10
57.734287
 20
194.426226
 30
0.0
 10
57.734287
 20
194.304961
 30
0.0
 10
57.734287
 20
194.183701
 30
0.0
  0
LWPOLYLINE
  5
101
100
AcDbEntity
  8
Livello_1
 62
7
100
AcDbPolyline
 90
43
 70
0
 10
62.392058
 20
197.375237
 30
0.0
 10
62.283188
 20
197.052772
 30
0.0
 10
61.956597
 20
196.945288
 30
0.0
 10
61.036067
 20
196.945288
 30
0.0
 10
60.115537
 20
196.945288
 30
0.0
 10
60.115537
 20
195.027057
 30
0.0
 10
60.115537
 20
193.108830
 30
0.0
 10
60.008048
 20
192.782236
 30
0.0
 10
59.685589
 20
192.673369
 30
0.0
 10
59.349349
 20
192.683021
 30
0.0
 10
59.189496
 20
192.711958
 30
0.0
 10
59.011730
 20
192.855276
 30
0.0
 10
58.952474
 20
193.108833
 30
0.0
 10
58.952474
 20
195.027060
 30
0.0
 10
58.952474
 20
196.945291
 30
0.0
 10
58.742323
 20
196.947266
 30
0.0
 10
58.574892
 20
196.953447
 30
0.0
 10
58.450178
 20
196.962394
 30
0.0
 10
58.368187
 20
196.972751
 30
0.0
 10
58.161479
 20
197.133979
 30
0.0
 10
58.092577
 20
197.430259
 30
0.0
 10
58.161479
 20
197.726533
 30
0.0
 10
58.368187
 20
197.887769
 30
0.0
 10
58.450178
 20
197.898098
 30
0.0
 10
58.574892
 20
197.907073
 30
0.0
 10
58.742323
 20
197.913282
 30
0.0
 10
58.952474
 20
197.915258
 30
0.0
 10
58.952474
 20
198.436155
 30
0.0
 10
58.952474
 20
198.957056
 30
0.0
 10
59.059961
 20
199.279511
 30
0.0
 10
59.382423
 20
199.387004
 30
0.0
 10
59.718662
 20
199.377352
 30
0.0
 10
59.878516
 20
199.348419
 30
0.0
 10
60.056279
 20
199.209230
 30
0.0
 10
60.115537
 20
198.957056
 30
0.0
 10
60.115537
 20
198.436155
 30
0.0
 10
60.115537
 20
197.915258
 30
0.0
 10
61.036067
 20
197.915258
 30
0.0
 10
61.956597
 20
197.915258
 30
0.0
 10
62.283188
 20
197.780206
 30
0.0
 10
62.392058
 20
197.375067
 30
0.0
 10
62.392058
 20
197.375053
 30
0.0
 10
62.392058
 20
197.375237
 30
0.0
  0
LWPOLYLINE
  5
102
100
AcDbEntity
  8
Livello_1
 62
7
100
AcDbPolyline
 90
39
 70
0
 10
70.048436
 20
195.225496
 30
0.0
 10
69.967128
 20
194.865827
 30
0.0
 10
69.723220
 20
194.745939
 30
0.0
 10
66.832096
 20
194.745939
 30
0.0
 10
63.940972
 20
194.745939
 30
0.0
 10
63.940972
 20
194.726635
 30
0.0
 10
63.940972
 20
194.707331
 30
0.0
 10
64.161456
 20
194.091347
 30
0.0
 10
64.822917
 20
193.742704
 30
0.0
 10
65.059250
 20
193.703430
 30
0.0
 10
65.382400
 20
193.673802
 30
0.0
 10
65.799256
 20
193.655203
 30
0.0
 10
66.316710
 20
193.648995
 30
0.0
 10
66.639169
 20
193.513946
 30
0.0
 10
66.746659
 20
193.108801
 30
0.0
 10
66.639169
 20
192.782208
 30
0.0
 10
66.316710
 20
192.673341
 30
0.0
 10
65.785475
 20
192.675317
 30
0.0
 10
65.360352
 20
192.681497
 30
0.0
 10
65.033065
 20
192.693209
 30
0.0
 10
64.795355
 20
192.711808
 30
0.0
 10
63.963019
 20
192.874416
 30
0.0
 10
63.384244
 20
193.163807
 30
0.0
 10
62.900554
 20
193.709509
 30
0.0
 10
62.739324
 20
194.343405
 30
0.0
 10
62.739324
 20
195.316301
 30
0.0
 10
62.739324
 20
196.289195
 30
0.0
 10
62.987369
 20
197.085699
 30
0.0
 10
63.731510
 20
197.645185
 30
0.0
 10
64.519748
 20
197.884961
 30
0.0
 10
65.528472
 20
197.964889
 30
0.0
 10
66.614367
 20
197.964889
 30
0.0
 10
67.700260
 20
197.964889
 30
0.0
 10
68.536724
 20
197.889096
 30
0.0
 10
69.216103
 20
197.661723
 30
0.0
 10
69.840348
 20
197.178025
 30
0.0
 10
70.048436
 20
196.498657
 30
0.0
 10
70.048436
 20
195.862003
 30
0.0
 10
70.048436
 20
195.225496
 30
0.0
  0
LWPOLYLINE
  5
103
100
AcDbEntity
  8
Livello_1
 62
7
100
AcDbPolyline
 90
13
 70
0
 10
68.912935
 20
195.754663
 30
0.0
 10
68.912935
 20
196.079879
 30
0.0
 10
68.912935
 20
196.405098
 30
0.0
 10
68.321750
 20
196.851579
 30
0.0
 10
66.548220
 20
197.000412
 30
0.0
 10
65.372753
 20
196.975604
 30
0.0
 10
64.635504
 20
196.901191
 30
0.0
 10
64.085665
 20
196.697240
 30
0.0
 10
63.902387
 20
196.361001
 30
0.0
 10
63.902387
 20
196.057832
 30
0.0
 10
63.902387
 20
195.754663
 30
0.0
 10
66.407662
 20
195.754663
 30
0.0
 10
68.912935
 20
195.754663
 30
0.0
  0
LWPOLYLINE
  5
104
100
AcDbEntity
  8
Livello_1
 62
7
100
AcDbPolyline
 90
41
 70
0
 10
77.903256
 20
193.108830
 30
0.0
 10
77.794386
 20
192.782236
 30
0.0
 10
77.467796
 20
192.673369
 30
0.0
 10
77.127413
 20
192.683021
 30
0.0
 10
76.966188
 20
192.711958
 30
0.0
 10
76.788416
 20
192.852518
 30
0.0
 10
76.729167
 20
193.108833
 30
0.0
 10
76.729167
 20
194.790039
 30
0.0
 10
76.729167
 20
196.471248
 30
0.0
 10
76.580334
 20
196.767522
 30
0.0
 10
76.133853
 20
196.939779
 30
0.0
 10
76.000870
 20
196.958377
 30
0.0
 10
75.811394
 20
196.970090
 30
0.0
 10
75.565409
 20
196.976299
 30
0.0
 10
75.262935
 20
196.978274
 30
0.0
 10
74.259722
 20
196.978274
 30
0.0
 10
73.256510
 20
196.978274
 30
0.0
 10
72.977457
 20
196.975452
 30
0.0
 10
72.746636
 20
196.967183
 30
0.0
 10
72.561289
 20
196.953382
 30
0.0
 10
72.418662
 20
196.934106
 30
0.0
 10
71.996983
 20
196.761849
 30
0.0
 10
71.856422
 20
196.465572
 30
0.0
 10
71.856422
 20
194.787121
 30
0.0
 10
71.856422
 20
193.108672
 30
0.0
 10
71.748935
 20
192.782076
 30
0.0
 10
71.426476
 20
192.673211
 30
0.0
 10
71.086099
 20
192.682863
 30
0.0
 10
70.924869
 20
192.711799
 30
0.0
 10
70.751237
 20
192.852360
 30
0.0
 10
70.693359
 20
193.108674
 30
0.0
 10
70.693359
 20
194.781614
 30
0.0
 10
70.693359
 20
196.454552
 30
0.0
 10
71.360329
 20
197.583161
 30
0.0
 10
73.361242
 20
197.959369
 30
0.0
 10
74.312089
 20
197.959369
 30
0.0
 10
75.262935
 20
197.959369
 30
0.0
 10
77.243170
 20
197.585916
 30
0.0
 10
77.903256
 20
196.465575
 30
0.0
 10
77.903256
 20
194.787129
 30
0.0
 10
77.903256
 20
193.108830
 30
0.0
  0
LWPOLYLINE
  5
105
100
AcDbEntity
  8
Livello_1
 62
7
100
AcDbPolyline
 90
23
 70
0
 10
85.906901
 20
194.315993
 30
0.0
 10
85.683652
 20
193.533267
 30
0.0
 10
85.013933
 20
192.993076
 30
0.0
 10
84.275301
 20
192.753297
 30
0.0
 10
83.327215
 20
192.673369
 30
0.0
 10
82.359830
 20
192.673369
 30
0.0
 10
81.392449
 20
192.673369
 30
0.0
 10
80.478805
 20
192.754675
 30
0.0
 10
79.656119
 20
192.998588
 30
0.0
 10
78.936782
 20
193.542913
 30
0.0
 10
78.697006
 20
194.315993
 30
0.0
 10
78.697006
 20
195.288889
 30
0.0
 10
78.697006
 20
196.261782
 30
0.0
 10
78.935405
 20
197.041749
 30
0.0
 10
79.650607
 20
197.606746
 30
0.0
 10
80.434711
 20
197.871327
 30
0.0
 10
81.386937
 20
197.959524
 30
0.0
 10
82.357076
 20
197.959524
 30
0.0
 10
83.327215
 20
197.959524
 30
0.0
 10
85.261972
 20
197.537842
 30
0.0
 10
85.906901
 20
196.272806
 30
0.0
 10
85.906901
 20
195.294401
 30
0.0
 10
85.906901
 20
194.315993
 30
0.0
  0
LWPOLYLINE
  5
106
100
AcDbEntity
  8
Livello_1
 62
7
100
AcDbPolyline
 90
23
 70
0
 10
84.727299
 20
194.315993
 30
0.0
 10
84.727299
 20
195.332986
 30
0.0
 10
84.727299
 20
196.349977
 30
0.0
 10
84.369004
 20
196.821263
 30
0.0
 10
83.294141
 20
196.978362
 30
0.0
 10
82.348807
 20
196.978362
 30
0.0
 10
81.403472
 20
196.978362
 30
0.0
 10
80.901865
 20
196.945285
 30
0.0
 10
80.455381
 20
196.846070
 30
0.0
 10
80.008897
 20
196.603531
 30
0.0
 10
79.860069
 20
196.261782
 30
0.0
 10
79.860069
 20
195.288889
 30
0.0
 10
79.860069
 20
194.315993
 30
0.0
 10
80.011651
 20
193.990774
 30
0.0
 10
80.466407
 20
193.764776
 30
0.0
 10
80.903242
 20
193.677959
 30
0.0
 10
81.408984
 20
193.649023
 30
0.0
 10
82.354318
 20
193.649023
 30
0.0
 10
83.299653
 20
193.649023
 30
0.0
 10
83.744754
 20
193.682094
 30
0.0
 10
84.165062
 20
193.781314
 30
0.0
 10
84.586736
 20
194.005932
 30
0.0
 10
84.727299
 20
194.315993
 30
0.0
  0
LWPOLYLINE
  5
107
100
AcDbEntity
  8
Livello_1
 62
7
100
AcDbPolyline
 90
25
 70
0
 10
93.998742
 20
194.338040
 30
0.0
 10
93.311094
 20
193.089537
 30
0.0
 10
91.248176
 20
192.673369
 30
0.0
 10
90.355208
 20
192.673369
 30
0.0
 10
89.462240
 20
192.673369
 30
0.0
 10
88.526549
 20
192.760186
 30
0.0
 10
87.670790
 20
193.020635
 30
0.0
 10
86.881174
 20
193.566337
 30
0.0
 10
86.617968
 20
194.310481
 30
0.0
 10
86.617968
 20
196.628341
 30
0.0
 10
86.617968
 20
198.946201
 30
0.0
 10
86.675846
 20
199.205267
 30
0.0
 10
86.849478
 20
199.343076
 30
0.0
 10
87.010708
 20
199.372007
 30
0.0
 10
87.351085
 20
199.381659
 30
0.0
 10
87.673544
 20
199.272789
 30
0.0
 10
87.781034
 20
198.946198
 30
0.0
 10
87.781034
 20
198.430813
 30
0.0
 10
87.781034
 20
197.915424
 30
0.0
 10
89.514604
 20
197.915424
 30
0.0
 10
91.248176
 20
197.915424
 30
0.0
 10
93.311094
 20
197.506143
 30
0.0
 10
93.998742
 20
196.278315
 30
0.0
 10
93.998742
 20
195.308176
 30
0.0
 10
93.998742
 20
194.338040
 30
0.0
  0
LWPOLYLINE
  5
108
100
AcDbEntity
  8
Livello_1
 62
7
100
AcDbPolyline
 90
25
 70
0
 10
92.841188
 20
194.376626
 30
0.0
 10
92.841188
 20
195.316448
 30
0.0
 10
92.841188
 20
196.256271
 30
0.0
 10
92.448442
 20
196.768896
 30
0.0
 10
91.270226
 20
196.939776
 30
0.0
 10
89.525630
 20
196.939776
 30
0.0
 10
87.781034
 20
196.939776
 30
0.0
 10
87.781034
 20
195.627886
 30
0.0
 10
87.781034
 20
194.315993
 30
0.0
 10
87.968447
 20
194.001798
 30
0.0
 10
88.530687
 20
193.775800
 30
0.0
 10
88.799402
 20
193.722056
 30
0.0
 10
89.065365
 20
193.682094
 30
0.0
 10
89.331326
 20
193.657286
 30
0.0
 10
89.600044
 20
193.649017
 30
0.0
 10
90.429622
 20
193.649017
 30
0.0
 10
91.259200
 20
193.649017
 30
0.0
 10
91.605775
 20
193.653138
 30
0.0
 10
91.884830
 20
193.665555
 30
0.0
 10
92.100490
 20
193.684859
 30
0.0
 10
92.256901
 20
193.709667
 30
0.0
 10
92.695113
 20
193.945311
 30
0.0
 10
92.841188
 20
194.376637
 30
0.0
 10
92.841188
 20
194.376637
 30
0.0
 10
92.841188
 20
194.376626
 30
0.0
  0
LWPOLYLINE
  5
109
100
AcDbEntity
  8
Livello_1
 62
7
100
AcDbPolyline
 90
23
 70
0
 10
101.914192
 20
194.315993
 30
0.0
 10
101.690943
 20
193.533267
 30
0.0
 10
101.021224
 20
192.993076
 30
0.0
 10
100.282592
 20
192.753297
 30
0.0
 10
99.334506
 20
192.673369
 30
0.0
 10
98.367122
 20
192.673369
 30
0.0
 10
97.399740
 20
192.673369
 30
0.0
 10
96.486097
 20
192.754675
 30
0.0
 10
95.663410
 20
192.998588
 30
0.0
 10
94.944074
 20
193.542913
 30
0.0
 10
94.704298
 20
194.315993
 30
0.0
 10
94.704298
 20
195.288889
 30
0.0
 10
94.704298
 20
196.261782
 30
0.0
 10
94.942697
 20
197.041749
 30
0.0
 10
95.657899
 20
197.606746
 30
0.0
 10
96.442002
 20
197.871327
 30
0.0
 10
97.394228
 20
197.959524
 30
0.0
 10
98.364367
 20
197.959524
 30
0.0
 10
99.334506
 20
197.959524
 30
0.0
 10
101.269264
 20
197.537842
 30
0.0
 10
101.914192
 20
196.272806
 30
0.0
 10
101.914192
 20
195.294401
 30
0.0
 10
101.914192
 20
194.315993
 30
0.0
  0
LWPOLYLINE
  5
10a
100
AcDbEntity
  8
Livello_1
 62
7
100
AcDbPolyline
 90
23
 70
0
 10
100.734591
 20
194.315993
 30
0.0
 10
100.734591
 20
195.332986
 30
0.0
 10
100.734591
 20
196.349977
 30
0.0
 10
100.376296
 20
196.821263
 30
0.0
 10
99.301433
 20
196.978362
 30
0.0
 10
98.356098
 20
196.978362
 30
0.0
 10
97.410764
 20
196.978362
 30
0.0
 10
96.909156
 20
196.945285
 30
0.0
 10
96.462672
 20
196.846070
 30
0.0
 10
96.016188
 20
196.603531
 30
0.0
 10
95.867361
 20
196.261782
 30
0.0
 10
95.867361
 20
195.288889
 30
0.0
 10
95.867361
 20
194.315993
 30
0.0
 10
96.018943
 20
193.990774
 30
0.0
 10
96.473699
 20
193.764776
 30
0.0
 10
96.910533
 20
193.677959
 30
0.0
 10
97.416276
 20
193.649023
 30
0.0
 10
98.361610
 20
193.649023
 30
0.0
 10
99.306944
 20
193.649023
 30
0.0
 10
99.752046
 20
193.682094
 30
0.0
 10
100.172353
 20
193.781314
 30
0.0
 10
100.594027
 20
194.005932
 30
0.0
 10
100.734591
 20
194.315993
 30
0.0
  0
LWPOLYLINE
  5
10b
100
AcDbEntity
  8
Livello_1
 62
7
100
AcDbPolyline
 90
41
 70
0
 10
110.402909
 20
194.260869
 30
0.0
 10
109.807589
 20
193.070244
 30
0.0
 10
108.021659
 20
192.673369
 30
0.0
 10
106.599524
 20
192.673369
 30
0.0
 10
105.177387
 20
192.673369
 30
0.0
 10
104.324379
 20
192.757429
 30
0.0
 10
103.595399
 20
193.009612
 30
0.0
 10
102.921539
 20
193.523620
 30
0.0
 10
102.696919
 20
194.205748
 30
0.0
 10
102.696919
 20
194.541988
 30
0.0
 10
102.696919
 20
194.878230
 30
0.0
 10
102.910513
 20
195.601699
 30
0.0
 10
103.551301
 20
196.118467
 30
0.0
 10
104.265123
 20
196.358243
 30
0.0
 10
105.138801
 20
196.438171
 30
0.0
 10
107.194833
 20
196.438171
 30
0.0
 10
109.250867
 20
196.438171
 30
0.0
 10
108.809892
 20
196.855714
 30
0.0
 10
107.674393
 20
196.994897
 30
0.0
 10
107.607554
 20
196.994333
 30
0.0
 10
107.528320
 20
196.992075
 30
0.0
 10
107.436677
 20
196.988575
 30
0.0
 10
107.332639
 20
196.983806
 30
0.0
 10
107.316101
 20
196.979685
 30
0.0
 10
107.277512
 20
196.978274
 30
0.0
 10
107.252705
 20
196.978274
 30
0.0
 10
107.227898
 20
196.978274
 30
0.0
 10
107.183801
 20
196.978274
 30
0.0
 10
107.139703
 20
196.978274
 30
0.0
 10
107.070802
 20
196.978274
 30
0.0
 10
107.001897
 20
196.978274
 30
0.0
 10
106.679433
 20
197.114698
 30
0.0
 10
106.571951
 20
197.523976
 30
0.0
 10
106.679433
 20
197.850567
 30
0.0
 10
107.001897
 20
197.959437
 30
0.0
 10
108.232482
 20
197.911202
 30
0.0
 10
109.135102
 20
197.766512
 30
0.0
 10
110.085942
 20
197.229074
 30
0.0
 10
110.402898
 20
196.333351
 30
0.0
 10
110.402898
 20
195.297096
 30
0.0
 10
110.402909
 20
194.260869
 30
0.0
  0
LWPOLYLINE
  5
10c
100
AcDbEntity
  8
Livello_1
 62
7
100
AcDbPolyline
 90
29
 70
0
 10
109.261893
 20
194.536479
 30
0.0
 10
109.261329
 20
194.623293
 30
0.0
 10
109.259071
 20
194.729403
 30
0.0
 10
109.255571
 20
194.854803
 30
0.0
 10
109.250802
 20
194.999498
 30
0.0
 10
109.245976
 20
195.144191
 30
0.0
 10
109.242533
 20
195.269594
 30
0.0
 10
109.240275
 20
195.375701
 30
0.0
 10
109.239710
 20
195.462521
 30
0.0
 10
107.175410
 20
195.462521
 30
0.0
 10
105.111110
 20
195.462521
 30
0.0
 10
104.741794
 20
195.429447
 30
0.0
 10
104.361457
 20
195.330229
 30
0.0
 10
103.985249
 20
195.133167
 30
0.0
 10
103.859849
 20
194.883745
 30
0.0
 10
103.859849
 20
194.550260
 30
0.0
 10
103.859849
 20
194.216772
 30
0.0
 10
103.989386
 20
193.959078
 30
0.0
 10
104.377992
 20
193.770288
 30
0.0
 10
104.734902
 20
193.679336
 30
0.0
 10
105.144181
 20
193.649023
 30
0.0
 10
106.588365
 20
193.649023
 30
0.0
 10
108.032550
 20
193.649023
 30
0.0
 10
108.581004
 20
193.680716
 30
0.0
 10
108.925518
 20
193.775800
 30
0.0
 10
109.177695
 20
194.051407
 30
0.0
 10
109.261760
 20
194.536479
 30
0.0
 10
109.261828
 20
194.536479
 30
0.0
 10
109.261893
 20
194.536479
 30
0.0
  0
LWPOLYLINE
  5
10d
100
AcDbEntity
  8
Livello_1
 62
7
100
AcDbPolyline
 90
25
 70
0
 10
114.470877
 20
197.408310
 30
0.0
 10
114.341340
 20
197.081711
 30
0.0
 10
113.952734
 20
196.972850
 30
0.0
 10
113.865228
 20
196.974825
 30
0.0
 10
113.746029
 20
196.981006
 30
0.0
 10
113.626827
 20
196.987215
 30
0.0
 10
113.539324
 20
196.989191
 30
0.0
 10
112.534731
 20
196.822448
 30
0.0
 10
112.199869
 20
196.322220
 30
0.0
 10
112.199869
 20
194.715428
 30
0.0
 10
112.199869
 20
193.108635
 30
0.0
 10
112.139236
 20
192.848186
 30
0.0
 10
111.957335
 20
192.706248
 30
0.0
 10
111.780944
 20
192.681441
 30
0.0
 10
111.450216
 20
192.673172
 30
0.0
 10
111.140158
 20
192.783416
 30
0.0
 10
111.036806
 20
193.114144
 30
0.0
 10
111.036806
 20
194.718179
 30
0.0
 10
111.036806
 20
196.322218
 30
0.0
 10
111.302766
 20
197.191756
 30
0.0
 10
112.100651
 20
197.727817
 30
0.0
 10
112.909559
 20
197.901446
 30
0.0
 10
114.035417
 20
197.959327
 30
0.0
 10
114.362010
 20
197.821517
 30
0.0
 10
114.470877
 20
197.408310
 30
0.0
  0
LWPOLYLINE
  5
10e
100
AcDbEntity
  8
Livello_1
 62
7
100
AcDbPolyline
 90
27
 70
0
 10
122.573742
 20
194.299455
 30
0.0
 10
122.310531
 20
193.552559
 30
0.0
 10
121.520921
 20
193.009612
 30
0.0
 10
120.700983
 20
192.757429
 30
0.0
 10
119.729470
 20
192.673369
 30
0.0
 10
118.842014
 20
192.673369
 30
0.0
 10
117.954558
 20
192.673369
 30
0.0
 10
115.910927
 20
193.046820
 30
0.0
 10
115.170921
 20
194.167163
 30
0.0
 10
115.158503
 20
194.473086
 30
0.0
 10
115.154383
 20
194.861695
 30
0.0
 10
115.162652
 20
195.647176
 30
0.0
 10
115.187459
 20
196.272806
 30
0.0
 10
115.924708
 20
197.504768
 30
0.0
 10
117.938022
 20
197.915427
 30
0.0
 10
119.674349
 20
197.915427
 30
0.0
 10
121.410679
 20
197.915427
 30
0.0
 10
121.410679
 20
198.430815
 30
0.0
 10
121.410679
 20
198.946201
 30
0.0
 10
121.518161
 20
199.272792
 30
0.0
 10
121.840628
 20
199.381662
 30
0.0
 10
122.118986
 20
199.370627
 30
0.0
 10
122.336721
 20
199.337559
 30
0.0
 10
122.514481
 20
199.198372
 30
0.0
 10
122.573745
 20
198.946196
 30
0.0
 10
122.573745
 20
196.622824
 30
0.0
 10
122.573742
 20
194.299455
 30
0.0
  0
LWPOLYLINE
  5
10f
100
AcDbEntity
  8
Livello_1
 62
7
100
AcDbPolyline
 90
17
 70
0
 10
121.410676
 20
194.321496
 30
0.0
 10
121.410676
 20
195.630632
 30
0.0
 10
121.410676
 20
196.939768
 30
0.0
 10
119.660568
 20
196.939768
 30
0.0
 10
117.910460
 20
196.939768
 30
0.0
 10
116.740505
 20
196.767511
 30
0.0
 10
116.350519
 20
196.250750
 30
0.0
 10
116.350519
 20
195.313685
 30
0.0
 10
116.350519
 20
194.376617
 30
0.0
 10
116.497969
 20
193.954938
 30
0.0
 10
116.940322
 20
193.715159
 30
0.0
 10
117.316524
 20
193.665550
 30
0.0
 10
117.938019
 20
193.649011
 30
0.0
 10
118.775867
 20
193.649011
 30
0.0
 10
119.613714
 20
193.649011
 30
0.0
 10
120.961432
 20
193.817131
 30
0.0
 10
121.410676
 20
194.321496
 30
0.0
  0
LWPOLYLINE
  5
110
100
AcDbEntity
  8
Livello_1
 62
7
100
AcDbPolyline
 90
9
 70
0
 10
124.795139
 20
193.279707
 30
0.0
 10
124.547091
 20
192.827711
 30
0.0
 10
124.034463
 20
192.678884
 30
0.0
 10
123.516319
 20
192.822199
 30
0.0
 10
123.273783
 20
193.279707
 30
0.0
 10
123.516319
 20
193.726191
 30
0.0
 10
124.028951
 20
193.869509
 30
0.0
 10
124.547091
 20
193.726191
 30
0.0
 10
124.795139
 20
193.279707
 30
0.0
  0
LWPOLYLINE
  5
111
100
AcDbEntity
  8
Livello_1
 62
7
100
AcDbPolyline
 90
31
 70
0
 10
132.842881
 20
193.108830
 30
0.0
 10
132.707829
 20
192.782236
 30
0.0
 10
132.302690
 20
192.673369
 30
0.0
 10
130.150195
 20
192.673369
 30
0.0
 10
127.997701
 20
192.673369
 30
0.0
 10
126.931095
 20
192.732625
 30
0.0
 10
126.211762
 20
192.910394
 30
0.0
 10
125.508964
 20
193.438180
 30
0.0
 10
125.274697
 20
194.271896
 30
0.0
 10
125.274697
 20
195.313694
 30
0.0
 10
125.274697
 20
196.355489
 30
0.0
 10
125.894812
 20
197.558512
 30
0.0
 10
127.755165
 20
197.959524
 30
0.0
 10
130.059247
 20
197.959524
 30
0.0
 10
132.363326
 20
197.959524
 30
0.0
 10
132.702317
 20
197.836876
 30
0.0
 10
132.815322
 20
197.468943
 30
0.0
 10
132.702317
 20
197.101004
 30
0.0
 10
132.363326
 20
196.978362
 30
0.0
 10
130.100586
 20
196.978362
 30
0.0
 10
127.837847
 20
196.978362
 30
0.0
 10
126.787780
 20
196.830909
 30
0.0
 10
126.437760
 20
196.388562
 30
0.0
 10
126.437760
 20
195.355034
 30
0.0
 10
126.437760
 20
194.321505
 30
0.0
 10
126.836012
 20
193.817143
 30
0.0
 10
128.030772
 20
193.649023
 30
0.0
 10
130.219097
 20
193.649023
 30
0.0
 10
132.407423
 20
193.649023
 30
0.0
 10
132.734010
 20
193.513974
 30
0.0
 10
132.842881
 20
193.108830
 30
0.0
  0
LWPOLYLINE
  5
112
100
AcDbEntity
  8
Livello_1
 62
7
100
AcDbPolyline
 90
23
 70
0
 10
140.653603
 20
194.315993
 30
0.0
 10
140.430354
 20
193.533267
 30
0.0
 10
139.760633
 20
192.993076
 30
0.0
 10
139.022001
 20
192.753297
 30
0.0
 10
138.073915
 20
192.673369
 30
0.0
 10
137.106533
 20
192.673369
 30
0.0
 10
136.139149
 20
192.673369
 30
0.0
 10
135.225508
 20
192.754675
 30
0.0
 10
134.402822
 20
192.998588
 30
0.0
 10
133.683485
 20
193.542913
 30
0.0
 10
133.443706
 20
194.315993
 30
0.0
 10
133.443706
 20
195.288889
 30
0.0
 10
133.443706
 20
196.261782
 30
0.0
 10
133.682108
 20
197.041749
 30
0.0
 10
134.397310
 20
197.606746
 30
0.0
 10
135.181413
 20
197.871327
 30
0.0
 10
136.133637
 20
197.959524
 30
0.0
 10
137.103776
 20
197.959524
 30
0.0
 10
138.073915
 20
197.959524
 30
0.0
 10
140.008675
 20
197.537842
 30
0.0
 10
140.653603
 20
196.272806
 30
0.0
 10
140.653603
 20
195.294401
 30
0.0
 10
140.653603
 20
194.315993
 30
0.0
  0
LWPOLYLINE
  5
113
100
AcDbEntity
  8
Livello_1
 62
7
100
AcDbPolyline
 90
23
 70
0
 10
139.474002
 20
194.315993
 30
0.0
 10
139.474002
 20
195.332986
 30
0.0
 10
139.474002
 20
196.349977
 30
0.0
 10
139.115707
 20
196.821263
 30
0.0
 10
138.040841
 20
196.978362
 30
0.0
 10
137.095507
 20
196.978362
 30
0.0
 10
136.150172
 20
196.978362
 30
0.0
 10
135.648565
 20
196.945285
 30
0.0
 10
135.202083
 20
196.846070
 30
0.0
 10
134.755596
 20
196.603531
 30
0.0
 10
134.606769
 20
196.261782
 30
0.0
 10
134.606769
 20
195.288889
 30
0.0
 10
134.606769
 20
194.315993
 30
0.0
 10
134.758354
 20
193.990774
 30
0.0
 10
135.213107
 20
193.764776
 30
0.0
 10
135.649942
 20
193.677959
 30
0.0
 10
136.155687
 20
193.649023
 30
0.0
 10
137.101021
 20
193.649023
 30
0.0
 10
138.046353
 20
193.649023
 30
0.0
 10
138.491457
 20
193.682094
 30
0.0
 10
138.911762
 20
193.781314
 30
0.0
 10
139.333436
 20
194.005932
 30
0.0
 10
139.474002
 20
194.315993
 30
0.0
  0
LWPOLYLINE
  5
114
100
AcDbEntity
  8
Livello_1
 62
7
100
AcDbPolyline
 90
75
 70
0
 10
151.435373
 20
193.108830
 30
0.0
 10
151.327877
 20
192.782236
 30
0.0
 10
151.005424
 20
192.673369
 30
0.0
 10
150.665042
 20
192.683021
 30
0.0
 10
150.503819
 20
192.711958
 30
0.0
 10
150.326045
 20
192.852518
 30
0.0
 10
150.266798
 20
193.108833
 30
0.0
 10
150.266798
 20
194.737672
 30
0.0
 10
150.266798
 20
196.366515
 30
0.0
 10
149.896096
 20
196.837801
 30
0.0
 10
148.784028
 20
196.994900
 30
0.0
 10
148.706857
 20
196.994900
 30
0.0
 10
148.629686
 20
196.994900
 30
0.0
 10
148.593858
 20
196.994900
 30
0.0
 10
148.558030
 20
196.994900
 30
0.0
 10
148.511170
 20
196.993489
 30
0.0
 10
148.491894
 20
196.989425
 30
0.0
 10
147.900712
 20
196.950839
 30
0.0
 10
147.549317
 20
196.890207
 30
0.0
 10
147.160705
 20
196.644913
 30
0.0
 10
147.031174
 20
196.217725
 30
0.0
 10
147.031174
 20
194.663298
 30
0.0
 10
147.031174
 20
193.108869
 30
0.0
 10
146.971913
 20
192.852555
 30
0.0
 10
146.794152
 20
192.711994
 30
0.0
 10
146.632916
 20
192.683061
 30
0.0
 10
146.292545
 20
192.673409
 30
0.0
 10
145.965946
 20
192.782273
 30
0.0
 10
145.857087
 20
193.108869
 30
0.0
 10
145.857087
 20
194.668810
 30
0.0
 10
145.857087
 20
196.228748
 30
0.0
 10
145.773021
 20
196.621486
 30
0.0
 10
145.520845
 20
196.862645
 30
0.0
 10
145.216296
 20
196.949459
 30
0.0
 10
144.765680
 20
196.978401
 30
0.0
 10
144.694021
 20
196.978401
 30
0.0
 10
144.622365
 20
196.978401
 30
0.0
 10
144.575510
 20
196.978401
 30
0.0
 10
144.528656
 20
196.978401
 30
0.0
 10
144.503848
 20
196.978401
 30
0.0
 10
144.479041
 20
196.978401
 30
0.0
 10
144.444587
 20
196.979812
 30
0.0
 10
144.429432
 20
196.983876
 30
0.0
 10
144.326077
 20
196.988702
 30
0.0
 10
144.236508
 20
196.992145
 30
0.0
 10
144.160714
 20
196.994121
 30
0.0
 10
144.098704
 20
196.994968
 30
0.0
 10
142.974224
 20
196.835114
 30
0.0
 10
142.599399
 20
196.355559
 30
0.0
 10
142.599399
 20
194.732231
 30
0.0
 10
142.599399
 20
193.108900
 30
0.0
 10
142.541518
 20
192.852586
 30
0.0
 10
142.367886
 20
192.712025
 30
0.0
 10
142.206655
 20
192.683092
 30
0.0
 10
141.866281
 20
192.673440
 30
0.0
 10
141.543820
 20
192.782304
 30
0.0
 10
141.436333
 20
193.108900
 30
0.0
 10
141.436333
 20
194.671596
 30
0.0
 10
141.436333
 20
196.234291
 30
0.0
 10
142.070229
 20
197.528266
 30
0.0
 10
143.971924
 20
197.959595
 30
0.0
 10
144.427363
 20
197.957619
 30
0.0
 10
144.790479
 20
197.951438
 30
0.0
 10
145.066772
 20
197.939698
 30
0.0
 10
145.261767
 20
197.921100
 30
0.0
 10
145.892904
 20
197.776401
 30
0.0
 10
146.474442
 20
197.507689
 30
0.0
 10
147.028408
 20
197.762623
 30
0.0
 10
147.698138
 20
197.910076
 30
0.0
 10
148.214898
 20
197.947279
 30
0.0
 10
148.993496
 20
197.959696
 30
0.0
 10
150.824901
 20
197.528368
 30
0.0
 10
151.435379
 20
196.234393
 30
0.0
 10
151.435379
 20
194.671666
 30
0.0
 10
151.435373
 20
193.108830
 30
0.0
  0
ENDSEC
  0
SECTION
  2
OBJECTS
  0
DICTIONARY
  5
C
330
0
100
AcDbDictionary
  3
ACAD_GROUP
350
D
  3
ACAD_MLINESTYLE
350
17
  0
DICTIONARY
  5
D
330
C
100
AcDbDictionary
  0
DICTIONARY
  5
1A
330
C
100
AcDbDictionary
  0
DICTIONARY
  5
17
330
C
100
AcDbDictionary
  3
STANDARD
350
18
  0
DICTIONARY
  5
19
330
C
100
AcDbDictionary
  0
ENDSEC
  0
EOF
