999
Inkscape export via OpenSCAD DXF Export
  0
SECTION
  2
HEADER
  9
$ACADVER
  1
AC1014
  9
$HANDSEED
  5
FFFF
  9
$MEASUREMENT
 70
     1
  0
ENDSEC
  0
SECTION
  2
TABLES
  0
TABLE
  2
VPORT
  5
8
330
0
100
AcDbSymbolTable
 70
     4
  0
VPORT
  5
2E
330
8
100
AcDbSymbolTableRecord
100
AcDbViewportTableRecord
  2
*ACTIVE
 70
     0
 10
0.0
 20
0.0
 11
1.0
 21
1.0
 12
210.0
 22
148.5
 13
0.0
 23
0.0
 14
10.0
 24
10.0
 15
10.0
 25
10.0
 16
0.0
 26
0.0
 36
1.0
 17
0.0
 27
0.0
 37
0.0
 40
341.0
 41
1.24
 42
50.0
 43
0.0
 44
0.0
 50
0.0
 51
0.0
 71
     0
 72
   100
 73
     1
 74
     3
 75
     0
 76
     0
 77
     0
 78
     0
  0
ENDTAB
  0
TABLE
  2
LTYPE
  5
5
330
0
100
AcDbSymbolTable
 70
     1
  0
LTYPE
  5
14
330
5
100
AcDbSymbolTableRecord
100
AcDbLinetypeTableRecord
  2
BYBLOCK
 70
     0
  3

 72
    65
 73
     0
 40
0.0
  0
LTYPE
  5
15
330
5
100
AcDbSymbolTableRecord
100
AcDbLinetypeTableRecord
  2
BYLAYER
 70
     0
  3

 72
    65
 73
     0
 40
0.0
  0
LTYPE
  5
16
330
5
100
AcDbSymbolTableRecord
100
AcDbLinetypeTableRecord
  2
CONTINUOUS
 70
     0
  3
Solid line
 72
    65
 73
     0
 40
0.0
  0
ENDTAB
  0
TABLE
0
TABLE
2
LAYER
5
2
330
0
100
AcDbSymbolTable
70
1
0
LAYER
5
10
330
2
100
AcDbSymbolTableRecord
100
AcDbLayerTableRecord
2
Livello_1
70
0
62
7
6
CONTINUOUS
0
ENDTAB
0
ENDSEC
  0
ENDTAB
  0
TABLE
  2
STYLE
  5
3
330
0
100
AcDbSymbolTable
 70
     1
  0
STYLE
  5
11
330
3
100
AcDbSymbolTableRecord
100
AcDbTextStyleTableRecord
  2
STANDARD
 70
     0
 40
0.0
 41
1.0
 50
0.0
 71
     0
 42
2.5
  3
txt
  4

  0
ENDTAB
  0
TABLE
  2
VIEW
  5
6
330
0
100
AcDbSymbolTable
 70
     0
  0
ENDTAB
  0
TABLE
  2
UCS
  5
7
330
0
100
AcDbSymbolTable
 70
     0
  0
ENDTAB
  0
TABLE
  2
APPID
  5
9
330
0
100
AcDbSymbolTable
 70
     2
  0
APPID
  5
12
330
9
100
AcDbSymbolTableRecord
100
AcDbRegAppTableRecord
  2
ACAD
 70
     0
  0
ENDTAB
  0
TABLE
  2
DIMSTYLE
  5
A
330
0
100
AcDbSymbolTable
 70
     1
  0
DIMSTYLE
105
27
330
A
100
AcDbSymbolTableRecord
100
AcDbDimStyleTableRecord
  2
ISO-25
 70
     0
  3

  4

  5

  6

  7

 40
1.0
 41
2.5
 42
0.625
 43
3.75
 44
1.25
 45
0.0
 46
0.0
 47
0.0
 48
0.0
140
2.5
141
2.5
142
0.0
143
0.03937007874016
144
1.0
145
0.0
146
1.0
147
0.625
 71
     0
 72
     0
 73
     0
 74
     0
 75
     0
 76
     0
 77
     1
 78
     8
170
     0
171
     3
172
     1
173
     0
174
     0
175
     0
176
     0
177
     0
178
     0
270
     2
271
     2
272
     2
273
     2
274
     3
340
11
275
     0
280
     0
281
     0
282
     0
283
     0
284
     8
285
     0
286
     0
287
     3
288
     0
  0
ENDTAB
  0
TABLE
  2
BLOCK_RECORD
  5
1
330
0
100
AcDbSymbolTable
 70
     1
  0
BLOCK_RECORD
  5
1F
330
1
100
AcDbSymbolTableRecord
100
AcDbBlockTableRecord
  2
*MODEL_SPACE
  0
BLOCK_RECORD
  5
1B
330
1
100
AcDbSymbolTableRecord
100
AcDbBlockTableRecord
  2
*PAPER_SPACE
  0
ENDTAB
  0
ENDSEC
  0
SECTION
  2
BLOCKS
  0
BLOCK
  5
20
330
1F
100
AcDbEntity
  8
0
100
AcDbBlockBegin
  2
*MODEL_SPACE
 70
     0
 10
0.0
 20
0.0
 30
0.0
  3
*MODEL_SPACE
  1

  0
ENDBLK
  5
21
330
1F
100
AcDbEntity
  8
0
100
AcDbBlockEnd
  0
BLOCK
  5
1C
330
1B
100
AcDbEntity
 67
     1
  8
0
100
AcDbBlockBegin
  2
*PAPER_SPACE
  1

  0
ENDBLK
  5
1D
330
1B
100
AcDbEntity
 67
     1
  8
0
100
AcDbBlockEnd
  0
ENDSEC
  0
SECTION
  2
ENTITIES
0
DIMENSION
5
83
100
AcDbEntity
62
256
370
-1
6
ByLayer
1
total_width
3
Standard
70
0
71
5
72
1
41
1.0
100
AcDbAlignedDimension
13
1.980881
23
0.000000
33
0.0
14
98.785330
24
0.000000
34
0.0
50
0.000000
100
AcDbRotatedDimension
0
DIMENSION
5
83
100
AcDbEntity
62
256
370
-1
6
ByLayer
1
total_height
3
Standard
70
0
71
5
72
1
41
1.0
100
AcDbAlignedDimension
13
0.000000
23
1.310331
33
0.0
14
0.000000
24
23.041442
34
0.0
50
90.000000
100
AcDbRotatedDimension
0
DIMENSION
8
Livello_1
5
83
100
AcDbEntity
62
256
370
-1
6
ByLayer
1
Livello_1_width
3
Standard
70
0
71
5
72
1
41
1.0
100
AcDbAlignedDimension
13
1.980881
23
0.000000
33
0.0
14
98.785330
24
0.000000
34
0.0
50
0.000000
100
AcDbRotatedDimension
0
DIMENSION
8
Livello_1
5
83
100
AcDbEntity
62
256
370
-1
6
ByLayer
1
Livello_1_height
3
Standard
70
0
71
5
72
1
41
1.0
100
AcDbAlignedDimension
13
0.000000
23
1.310331
33
0.0
14
0.000000
24
23.041442
34
0.0
50
90.000000
100
AcDbRotatedDimension
0
LWPOLYLINE
100
AcDbPolyline
8
Livello_1
90
42
70
0
10
4.993473
20
1.657916
30
0.0
10
4.021867
20
2.172103
30
0.0
10
3.094360
20
2.976670
30
0.0
10
2.363262
20
3.911856
30
0.0
10
1.980881
20
4.817902
30
0.0
10
1.994404
20
7.638697
30
0.0
10
2.232961
20
12.873836
30
0.0
10
2.558982
20
17.998866
30
0.0
10
2.834897
20
20.489335
30
0.0
10
3.497342
20
20.697205
30
0.0
10
4.834590
20
20.783664
30
0.0
10
6.379613
20
20.688697
30
0.0
10
6.604512
20
20.498232
30
0.0
10
6.646316
20
20.148664
30
0.0
10
6.235503
20
12.514102
30
0.0
10
6.007311
20
7.204341
30
0.0
10
6.086946
20
4.840705
30
0.0
10
6.460244
20
4.226819
30
0.0
10
7.056136
20
3.831965
30
0.0
10
7.920806
20
3.637507
30
0.0
10
9.100439
20
3.624807
30
0.0
10
10.563741
20
3.838560
30
0.0
10
11.028803
20
4.169078
30
0.0
10
11.360246
20
4.771839
30
0.0
10
11.754593
20
7.163539
30
0.0
10
12.011419
20
11.752553
30
0.0
10
12.471639
20
19.615696
30
0.0
10
12.623070
20
20.846617
30
0.0
10
14.424669
20
20.731899
30
0.0
10
16.373303
20
20.470146
30
0.0
10
16.110596
20
12.761808
30
0.0
10
15.791815
20
7.722445
30
0.0
10
15.388206
20
4.863420
30
0.0
10
15.087974
20
3.987340
30
0.0
10
14.686595
20
3.339309
30
0.0
10
13.473806
20
2.304684
30
0.0
10
12.721548
20
1.828597
30
0.0
10
11.976314
20
1.567224
30
0.0
10
9.099362
20
1.396352
30
0.0
10
6.585280
20
1.448098
30
0.0
10
4.993473
20
1.657916
30
0.0
10
4.993473
20
1.657916
30
0.0
0
LWPOLYLINE
100
AcDbPolyline
8
Livello_1
90
27
70
0
10
83.438091
20
2.368664
30
0.0
10
83.931980
20
12.034775
30
0.0
10
84.404601
20
20.642553
30
0.0
10
86.239045
20
20.723926
30
0.0
10
88.073490
20
20.805299
30
0.0
10
88.772038
20
19.312815
30
0.0
10
92.854611
20
10.911797
30
0.0
10
94.014125
20
8.803259
30
0.0
10
94.326439
20
8.362715
30
0.0
10
94.442554
20
8.365886
30
0.0
10
94.806239
20
14.574775
30
0.0
10
95.129045
20
20.078109
30
0.0
10
96.920417
20
20.027108
30
0.0
10
98.785330
20
19.885997
30
0.0
10
97.827871
20
1.344593
30
0.0
10
95.948565
20
1.403291
30
0.0
10
94.008939
20
1.649929
30
0.0
10
91.044844
20
7.378109
30
0.0
10
87.935297
20
13.253129
30
0.0
10
87.732369
20
12.477772
30
0.0
10
87.539472
20
10.289795
30
0.0
10
87.181199
20
4.203109
30
0.0
10
87.008682
20
1.310331
30
0.0
10
85.212753
20
1.310331
30
0.0
10
83.416823
20
1.310331
30
0.0
10
83.438103
20
2.368664
30
0.0
10
83.438091
20
2.368664
30
0.0
0
LWPOLYLINE
100
AcDbPolyline
8
Livello_1
90
27
70
0
10
52.541952
20
3.607789
30
0.0
10
51.951204
20
11.470331
30
0.0
10
51.338153
20
20.312726
30
0.0
10
51.166034
20
22.240676
30
0.0
10
56.355319
20
22.147170
30
0.0
10
61.025807
20
21.962829
30
0.0
10
62.013482
20
21.722006
30
0.0
10
62.858049
20
21.281541
30
0.0
10
64.046384
20
20.358236
30
0.0
10
64.839325
20
19.206331
30
0.0
10
65.248147
20
17.801838
30
0.0
10
65.284127
20
16.120772
30
0.0
10
65.120213
20
14.907877
30
0.0
10
64.826023
20
13.900666
30
0.0
10
64.379644
20
13.081710
30
0.0
10
63.759163
20
12.433581
30
0.0
10
62.942669
20
11.938852
30
0.0
10
61.908248
20
11.580094
30
0.0
10
59.097977
20
11.200780
30
0.0
10
56.179723
20
10.856893
30
0.0
10
56.132390
20
9.620795
30
0.0
10
56.284563
20
6.915857
30
0.0
10
56.521706
20
3.112122
30
0.0
10
54.578185
20
2.859505
30
0.0
10
52.691767
20
2.659664
30
0.0
10
52.541952
20
3.607789
30
0.0
10
52.541952
20
3.607789
30
0.0
0
LWPOLYLINE
100
AcDbPolyline
8
Livello_1
90
17
70
0
10
60.002304
20
13.874356
30
0.0
10
60.593681
20
14.298737
30
0.0
10
60.942485
20
14.899749
30
0.0
10
61.087469
20
15.794797
30
0.0
10
61.067386
20
17.101285
30
0.0
10
60.853075
20
18.341479
30
0.0
10
60.286229
20
19.137517
30
0.0
10
59.220802
20
19.602205
30
0.0
10
57.510745
20
19.848346
30
0.0
10
55.476823
20
20.018862
30
0.0
10
55.478516
20
19.060709
30
0.0
10
55.661458
20
15.774220
30
0.0
10
55.842707
20
13.445886
30
0.0
10
57.508227
20
13.445886
30
0.0
10
58.931904
20
13.569697
30
0.0
10
60.002307
20
13.874356
30
0.0
10
60.002304
20
13.874356
30
0.0
0
LWPOLYLINE
100
AcDbPolyline
8
Livello_1
90
33
70
0
10
38.534851
20
3.421551
30
0.0
10
37.424890
20
3.927638
30
0.0
10
36.507373
20
4.651863
30
0.0
10
35.827601
20
5.548269
30
0.0
10
35.430872
20
6.570897
30
0.0
10
35.352187
20
8.996801
30
0.0
10
35.548440
20
13.640422
30
0.0
10
35.962777
20
18.918352
30
0.0
10
36.225697
20
19.916907
30
0.0
10
36.646558
20
20.585714
30
0.0
10
37.875498
20
21.699072
30
0.0
10
39.500149
20
22.466864
30
0.0
10
41.374319
20
22.894467
30
0.0
10
43.351819
20
22.987255
30
0.0
10
45.286458
20
22.750604
30
0.0
10
47.032046
20
22.189892
30
0.0
10
48.442391
20
21.310493
30
0.0
10
48.976163
20
20.752966
30
0.0
10
49.371304
20
20.117783
30
0.0
10
49.617473
20
19.406710
30
0.0
10
49.719461
20
18.315824
30
0.0
10
49.534945
20
13.107587
30
0.0
10
49.239999
20
8.761910
30
0.0
10
48.783566
20
6.189255
30
0.0
10
48.432431
20
5.372069
30
0.0
10
47.966093
20
4.763250
30
0.0
10
47.359606
20
4.284502
30
0.0
10
46.588028
20
3.857528
30
0.0
10
44.931318
20
3.280316
30
0.0
10
42.495806
20
3.085480
30
0.0
10
40.170135
20
3.134644
30
0.0
10
38.534851
20
3.421551
30
0.0
10
38.534851
20
3.421551
30
0.0
0
LWPOLYLINE
100
AcDbPolyline
8
Livello_1
90
22
70
0
10
44.347203
20
5.904880
30
0.0
10
44.744915
20
6.609480
30
0.0
10
45.017611
20
8.016158
30
0.0
10
45.490421
20
15.465170
30
0.0
10
45.678358
20
19.318897
30
0.0
10
44.945975
20
20.051281
30
0.0
10
44.005038
20
20.646646
30
0.0
10
42.892598
20
20.834616
30
0.0
10
41.774838
20
20.617371
30
0.0
10
40.817944
20
19.997094
30
0.0
10
40.290202
20
19.250141
30
0.0
10
39.960685
20
17.870069
30
0.0
10
39.525860
20
10.482553
30
0.0
10
39.459355
20
8.026308
30
0.0
10
39.566863
20
6.615520
30
0.0
10
39.937444
20
5.843588
30
0.0
10
40.660156
20
5.303916
30
0.0
10
41.523606
20
5.051075
30
0.0
10
42.584106
20
5.092737
30
0.0
10
43.604392
20
5.390229
30
0.0
10
44.347203
20
5.904880
30
0.0
10
44.347203
20
5.904880
30
0.0
0
LWPOLYLINE
100
AcDbPolyline
8
Livello_1
90
29
70
0
10
68.499840
20
12.474195
30
0.0
10
67.951598
20
22.063627
30
0.0
10
78.266267
20
22.206747
30
0.0
10
78.525693
20
21.899218
30
0.0
10
78.619045
20
21.065886
30
0.0
10
78.619045
20
19.936998
30
0.0
10
75.373490
20
19.936998
30
0.0
10
72.127934
20
19.936998
30
0.0
10
72.129910
20
19.019775
30
0.0
10
72.311830
20
16.197553
30
0.0
10
72.491747
20
14.292553
30
0.0
10
75.273157
20
14.292553
30
0.0
10
78.054570
20
14.292553
30
0.0
10
78.054570
20
13.163664
30
0.0
10
78.054570
20
12.034775
30
0.0
10
75.867347
20
11.984455
30
0.0
10
73.186236
20
11.936308
30
0.0
10
72.860242
20
11.817137
30
0.0
10
72.713560
20
11.277711
30
0.0
10
72.876980
20
7.871998
30
0.0
10
73.058229
20
5.543664
30
0.0
10
76.701517
20
5.543664
30
0.0
10
80.344803
20
5.543664
30
0.0
10
80.258020
20
4.344220
30
0.0
10
80.171236
20
3.144775
30
0.0
10
74.663351
20
3.068462
30
0.0
10
69.155465
20
2.992178
30
0.0
10
68.499809
20
12.474195
30
0.0
10
68.499840
20
12.474195
30
0.0
0
LWPOLYLINE
100
AcDbPolyline
8
Livello_1
90
20
70
0
10
22.174601
20
4.570110
30
0.0
10
19.775712
20
5.825971
30
0.0
10
21.184799
20
5.764926
30
0.0
10
22.334099
20
5.811564
30
0.0
10
22.580544
20
5.950299
30
0.0
10
22.687159
20
6.188232
30
0.0
10
22.811653
20
6.433511
30
0.0
10
23.131751
20
6.581152
30
0.0
10
24.735294
20
6.672553
30
0.0
10
26.293790
20
6.586722
30
0.0
10
26.602609
20
6.456931
30
0.0
10
26.690156
20
6.249220
30
0.0
10
26.763803
20
6.047054
30
0.0
10
27.010019
20
5.914211
30
0.0
10
28.171823
20
5.811719
30
0.0
10
29.653490
20
5.797608
30
0.0
10
27.254601
20
4.555943
30
0.0
10
24.714601
20
3.314278
30
0.0
10
22.174601
20
4.570167
30
0.0
10
22.174601
20
4.570110
30
0.0
0
LWPOLYLINE
100
AcDbPolyline
8
Livello_1
90
18
70
0
10
22.739045
20
14.433664
30
0.0
10
22.739045
20
20.783664
30
0.0
10
20.340156
20
20.783664
30
0.0
10
17.941267
20
20.783664
30
0.0
10
17.941267
20
21.912553
30
0.0
10
17.941267
20
23.041442
30
0.0
10
24.821383
20
23.041442
30
0.0
10
31.701497
20
23.041442
30
0.0
10
31.992107
20
21.896537
30
0.0
10
32.282714
20
20.751632
30
0.0
10
29.556989
20
20.806761
30
0.0
10
26.831267
20
20.861893
30
0.0
10
26.755413
20
14.472780
30
0.0
10
26.679559
20
8.083664
30
0.0
10
24.709302
20
8.083664
30
0.0
10
22.739045
20
8.083664
30
0.0
10
22.739045
20
14.433664
30
0.0
10
22.739045
20
14.433664
30
0.0
  0
ENDSEC
  0
SECTION
  2
OBJECTS
  0
DICTIONARY
  5
C
330
0
100
AcDbDictionary
  3
ACAD_GROUP
350
D
  3
ACAD_MLINESTYLE
350
17
  0
DICTIONARY
  5
D
330
C
100
AcDbDictionary
  0
DICTIONARY
  5
1A
330
C
100
AcDbDictionary
  0
DICTIONARY
  5
17
330
C
100
AcDbDictionary
  3
STANDARD
350
18
  0
DICTIONARY
  5
19
330
C
100
AcDbDictionary
  0
ENDSEC
  0
EOF
